<svg width="49" height="44" viewBox="0 0 49 44" xmlns="http://www.w3.org/2000/svg"><g fill="none" fill-rule="evenodd"><path d="M35.627 32.329a1.964 1.964 0 012.776 2.776 1.964 1.964 0 01-2.776-2.776" fill="#FFF"/><path d="M48.583 26.384c0 9.499-7.7 17.199-17.199 17.199-9.498 0-17.199-7.7-17.199-17.199 0-9.498 7.701-17.199 17.199-17.199 9.499 0 17.199 7.701 17.199 17.199" fill="#EF3054"/><path d="M35.398 18.199c0 9.498-7.701 17.199-17.199 17.199C8.7 35.398 1 27.697 1 18.199 1 8.7 8.7 1 18.199 1c9.498 0 17.199 7.7 17.199 17.199z" stroke="#2C343C" stroke-width="2" stroke-linecap="round" stroke-linejoin="round"/></g></svg>