<?xml version="1.0" encoding="UTF-8"?>
<svg xmlns="http://www.w3.org/2000/svg" xmlns:xlink="http://www.w3.org/1999/xlink" width="90" height="90" viewBox="0 0 90 90" version="1.1">
<defs>
<linearGradient id="linear0" gradientUnits="userSpaceOnUse" x1="0" y1="40.029999" x2="92.440002" y2="40.029999" gradientTransform="matrix(0.52521,0,0,0.520863,0,0)">
<stop offset="0" style="stop-color:rgb(42.352942%,72.549021%,42.352942%);stop-opacity:1;"/>
<stop offset="1" style="stop-color:rgb(6.27451%,60.000002%,55.686277%);stop-opacity:1;"/>
</linearGradient>
<linearGradient id="linear1" gradientUnits="userSpaceOnUse" x1="0" y1="132.759995" x2="92.440002" y2="132.759995" gradientTransform="matrix(0.52521,0,0,0.520863,0,0)">
<stop offset="0" style="stop-color:rgb(42.352942%,72.549021%,42.352942%);stop-opacity:1;"/>
<stop offset="1" style="stop-color:rgb(6.27451%,60.000002%,55.686277%);stop-opacity:1;"/>
</linearGradient>
<linearGradient id="linear2" gradientUnits="userSpaceOnUse" x1="78.919998" y1="86" x2="171.360001" y2="86" gradientTransform="matrix(0.52521,0,0,0.520863,0,0)">
<stop offset="0" style="stop-color:rgb(42.352942%,72.549021%,42.352942%);stop-opacity:1;"/>
<stop offset="1" style="stop-color:rgb(6.27451%,60.000002%,55.686277%);stop-opacity:1;"/>
</linearGradient>
</defs>
<g id="surface1">
<path style=" stroke:none;fill-rule:nonzero;fill:url(#linear0);" d="M 36.414062 0 L 12.136719 0 L 0 20.851562 L 12.136719 41.695312 L 36.414062 41.695312 L 48.550781 20.851562 Z M 36.414062 0 "/>
<path style=" stroke:none;fill-rule:nonzero;fill:url(#linear1);" d="M 44.742188 62.617188 L 27.824219 76.410156 L 27.824219 66.082031 L 19.328125 62.332031 L 39.5625 53.714844 L 36.414062 48.300781 L 12.136719 48.300781 L 0 69.148438 L 12.136719 90 L 36.414062 90 L 48.550781 69.148438 Z M 44.742188 62.617188 "/>
<path style=" stroke:none;fill-rule:nonzero;fill:url(#linear2);" d="M 77.863281 23.945312 L 53.585938 23.945312 L 41.449219 44.792969 L 44.984375 50.863281 L 63.296875 42.871094 L 59.464844 37.476562 L 74.4375 38.554688 L 69.15625 51.761719 L 65.523438 47.394531 L 50.050781 59.570312 L 53.585938 65.640625 L 77.863281 65.640625 L 90 44.792969 Z M 77.863281 23.945312 "/>
</g>
</svg>
