<svg xmlns="http://www.w3.org/2000/svg" xmlns:xlink="http://www.w3.org/1999/xlink" viewBox="0 0 171.36 172.79"><defs><style>.cls-1{fill:url(#linear-gradient);}.cls-2{fill:url(#linear-gradient-2);}.cls-3{fill:url(#linear-gradient-3);}</style><linearGradient id="linear-gradient" y1="40.03" x2="92.44" y2="40.03" gradientUnits="userSpaceOnUse"><stop offset="0" stop-color="#6cb96c"/><stop offset="1" stop-color="#10998e"/></linearGradient><linearGradient id="linear-gradient-2" y1="132.76" x2="92.44" y2="132.76" xlink:href="#linear-gradient"/><linearGradient id="linear-gradient-3" x1="78.92" y1="86" x2="171.36" y2="86" xlink:href="#linear-gradient"/></defs><title>Asset 7_icon</title><g id="Layer_2" data-name="Layer 2"><g id="Layer_1-2" data-name="Layer 1"><polygon class="cls-1" points="69.33 0 23.11 0 0 40.03 23.11 80.05 69.33 80.05 92.44 40.03 69.33 0"/><polygon class="cls-2" points="85.19 120.22 52.98 146.7 52.98 126.87 36.8 119.67 75.33 103.13 69.33 92.73 23.11 92.73 0 132.76 23.11 172.79 69.33 172.79 92.44 132.76 85.19 120.22"/><polygon class="cls-3" points="148.25 45.97 102.03 45.97 78.92 86 85.65 97.65 120.52 82.31 113.22 71.95 141.73 74.02 131.67 99.38 124.76 90.99 95.3 114.37 102.03 126.02 148.25 126.02 171.36 86 148.25 45.97"/></g></g></svg>