<?xml version="1.0" encoding="UTF-8"?>
<svg xmlns="http://www.w3.org/2000/svg" xmlns:xlink="http://www.w3.org/1999/xlink" width="90" height="43" viewBox="0 0 90 43" version="1.1">
<defs>
<linearGradient id="linear0" gradientUnits="userSpaceOnUse" x1="0" y1="36.299999" x2="44.419998" y2="36.299999" gradientTransform="matrix(0.520863,0,0,0.592205,0,0)">
<stop offset="0" style="stop-color:rgb(42.352942%,72.549021%,42.352942%);stop-opacity:1;"/>
<stop offset="1" style="stop-color:rgb(6.27451%,60.000002%,55.686277%);stop-opacity:1;"/>
</linearGradient>
<linearGradient id="linear1" gradientUnits="userSpaceOnUse" x1="125.480003" y1="36.279999" x2="172.789993" y2="36.279999" gradientTransform="matrix(0.520863,0,0,0.592205,0,0)">
<stop offset="0" style="stop-color:rgb(42.352942%,72.549021%,42.352942%);stop-opacity:1;"/>
<stop offset="1" style="stop-color:rgb(6.27451%,60.000002%,55.686277%);stop-opacity:1;"/>
</linearGradient>
<linearGradient id="linear2" gradientUnits="userSpaceOnUse" x1="75.440002" y1="36.209999" x2="119.809998" y2="36.209999" gradientTransform="matrix(0.520863,0,0,0.592205,0,0)">
<stop offset="0" style="stop-color:rgb(42.352942%,72.549021%,42.352942%);stop-opacity:1;"/>
<stop offset="1" style="stop-color:rgb(6.27451%,60.000002%,55.686277%);stop-opacity:1;"/>
</linearGradient>
<linearGradient id="linear3" gradientUnits="userSpaceOnUse" x1="50.830002" y1="36.27" x2="68.160004" y2="36.27" gradientTransform="matrix(0.520863,0,0,0.592205,0,0)">
<stop offset="0" style="stop-color:rgb(42.352942%,72.549021%,42.352942%);stop-opacity:1;"/>
<stop offset="1" style="stop-color:rgb(6.27451%,60.000002%,55.686277%);stop-opacity:1;"/>
</linearGradient>
</defs>
<g id="surface1">
<path style=" stroke:none;fill-rule:nonzero;fill:url(#linear0);" d="M 0 8.289062 C 0.0976562 7.949219 0.230469 7.617188 0.296875 7.265625 C 1.019531 3.195312 4.117188 0.226562 7.769531 0.113281 C 12.851562 -0.105469 17.9375 0.0585938 23.136719 0.0585938 L 23.136719 8.65625 L 17.40625 8.65625 C 15.496094 8.65625 13.578125 8.621094 11.679688 8.65625 C 10.140625 8.695312 9.332031 9.488281 9.269531 11.117188 C 9.191406 13.0625 9.269531 15.023438 9.269531 17.148438 L 19.445312 17.148438 L 19.445312 25.726562 L 9.300781 25.726562 L 9.300781 43 L 0 43 Z M 0 8.289062 "/>
<path style=" stroke:none;fill-rule:nonzero;fill:url(#linear1);" d="M 89.890625 42.851562 L 81.035156 42.851562 L 81.035156 28.425781 L 76.253906 28.425781 L 76.253906 19.828125 L 80.855469 19.828125 C 80.855469 16.585938 80.855469 13.53125 80.855469 10.476562 C 80.847656 10.269531 80.792969 10.066406 80.703125 9.882812 C 79.660156 7.921875 77.972656 8.664062 76.535156 8.664062 C 75.367188 8.664062 74.703125 9.601562 74.578125 10.933594 C 74.554688 11.355469 74.554688 11.78125 74.578125 12.207031 L 74.578125 42.941406 C 71.675781 42.941406 68.890625 42.941406 66.101562 42.898438 C 65.867188 42.898438 65.503906 42.34375 65.453125 41.992188 C 65.382812 41.308594 65.371094 40.613281 65.414062 39.925781 C 65.414062 30 65.414062 20.074219 65.414062 10.152344 C 65.414062 5.234375 67.5 1.746094 71.144531 0.539062 C 72.128906 0.21875 73.148438 0.0625 74.171875 0.0703125 C 77.296875 0.0703125 80.421875 -0.0351562 83.546875 0.378906 C 87.226562 0.964844 89.964844 4.542969 89.96875 8.769531 C 90.046875 19.863281 90.015625 30.953125 90.019531 42.046875 C 89.992188 42.316406 89.949219 42.585938 89.890625 42.851562 Z M 89.890625 42.851562 "/>
<path style=" stroke:none;fill-rule:nonzero;fill:url(#linear2);" d="M 62.40625 8.65625 L 51.804688 8.65625 C 49.035156 8.65625 48.488281 9.292969 48.488281 12.507812 L 48.488281 17.113281 L 58.675781 17.113281 L 58.675781 25.777344 L 48.507812 25.777344 L 48.507812 42.859375 L 39.292969 42.859375 L 39.292969 41.082031 C 39.292969 30.886719 39.292969 20.691406 39.292969 10.492188 C 39.304688 3.796875 42.617188 0.0351562 48.492188 0.03125 C 52.605469 0.03125 56.714844 0.03125 60.820312 0.03125 L 62.382812 0.03125 Z M 62.40625 8.65625 "/>
<path style=" stroke:none;fill-rule:nonzero;fill:url(#linear3);" d="M 26.476562 0.125 L 35.503906 0.125 L 35.503906 42.835938 L 26.476562 42.835938 Z M 26.476562 0.125 "/>
</g>
</svg>
