<svg xmlns="http://www.w3.org/2000/svg" xmlns:xlink="http://www.w3.org/1999/xlink" viewBox="0 0 172.42 167.77"><defs><style>.cls-1{fill:url(#linear-gradient);}.cls-2{fill:url(#linear-gradient-2);}</style><linearGradient id="linear-gradient" y1="83.88" x2="172.42" y2="83.88" gradientUnits="userSpaceOnUse"><stop offset="0" stop-color="#6cb96c"/><stop offset="1" stop-color="#10998e"/></linearGradient><linearGradient id="linear-gradient-2" x1="23.27" y1="46.99" x2="59.53" y2="46.99" xlink:href="#linear-gradient"/></defs><title>Asset 3_icon</title><g id="Layer_2" data-name="Layer 2"><g id="Layer_1-2" data-name="Layer 1"><path class="cls-1" d="M71,127.9c.74,9.33,1.68,18.67,2.16,28,.63,12.33-8.22,11.5-16.56,11.81-8.6.31-17.2-1.32-15.1-11.68,5.23-25.86-3.84-41.93-25.19-58.16-24-18.24-20.11-59,2.68-82,22-22.17,51.12-21,76.19,2.66a27.39,27.39,0,0,0,11.46,5.93C142.7,34.09,159.7,66,148.74,101.53c-2,6.36.9,15.14,3.82,21.8,2.38,5.44,8.24,9.32,12.45,14,10.72,11.9,10,15.61-3.26,25.34-7.47,5.5-13,4.78-17.93-2.82-1.47-2.25-3.38-4.27-4.54-6.67-8.23-16.94-20.6-24-40.1-20.79C90.55,133.82,81,129.67,71,127.9ZM55.83,95.26c7.2,0,14.54-.9,21.57.19C91.74,97.67,98,89.57,101.64,77.9a64.49,64.49,0,0,0,2.7-14.51c1.6-22-11-44.15-29.95-53.23C57.35,2,39.05,4.85,24.73,18.73,8.07,34.88,3.37,54.75,9.44,76.83,12.75,88.85,19,98,34.27,95.46,41.27,94.28,48.64,95.26,55.83,95.26Zm16.44,21.26C85.75,128.07,94.8,129.9,103.08,123c12.76-10.67,25.45-21.45,37.7-32.71a18.44,18.44,0,0,0,5.54-11.22C147.69,57,126.74,33.94,104,32,120.27,70,106.31,97.17,72.27,116.52Z"/><path class="cls-2" d="M59.53,46.8c0,9.51-8.41,18-18,18.06A18.34,18.34,0,0,1,23.27,47a18.13,18.13,0,0,1,36.26-.23Z"/></g></g></svg>