<?xml version="1.0" encoding="UTF-8"?>
<svg xmlns="http://www.w3.org/2000/svg" xmlns:xlink="http://www.w3.org/1999/xlink" width="90" height="90" viewBox="0 0 90 90" version="1.1">
<defs>
<linearGradient id="linear0" gradientUnits="userSpaceOnUse" x1="0" y1="114.410004" x2="171.440002" y2="114.410004" gradientTransform="matrix(0.524965,0,0,0.524812,0,0)">
<stop offset="0" style="stop-color:rgb(42.352942%,72.549021%,42.352942%);stop-opacity:1;"/>
<stop offset="1" style="stop-color:rgb(6.27451%,60.000002%,55.686277%);stop-opacity:1;"/>
</linearGradient>
<linearGradient id="linear1" gradientUnits="userSpaceOnUse" x1="53.580002" y1="32.330002" x2="117.870003" y2="32.330002" gradientTransform="matrix(0.524965,0,0,0.524812,0,0)">
<stop offset="0" style="stop-color:rgb(42.352942%,72.549021%,42.352942%);stop-opacity:1;"/>
<stop offset="1" style="stop-color:rgb(6.27451%,60.000002%,55.686277%);stop-opacity:1;"/>
</linearGradient>
<linearGradient id="linear2" gradientUnits="userSpaceOnUse" x1="46.470001" y1="3.81" x2="53.73" y2="3.81" gradientTransform="matrix(0.524965,0,0,0.524812,0,0)">
<stop offset="0" style="stop-color:rgb(42.352942%,72.549021%,42.352942%);stop-opacity:1;"/>
<stop offset="1" style="stop-color:rgb(6.27451%,60.000002%,55.686277%);stop-opacity:1;"/>
</linearGradient>
<linearGradient id="linear3" gradientUnits="userSpaceOnUse" x1="117.709999" y1="3.81" x2="124.980003" y2="3.81" gradientTransform="matrix(0.524965,0,0,0.524812,0,0)">
<stop offset="0" style="stop-color:rgb(42.352942%,72.549021%,42.352942%);stop-opacity:1;"/>
<stop offset="1" style="stop-color:rgb(6.27451%,60.000002%,55.686277%);stop-opacity:1;"/>
</linearGradient>
<linearGradient id="linear4" gradientUnits="userSpaceOnUse" x1="32.259998" y1="4.58" x2="39.369999" y2="4.58" gradientTransform="matrix(0.524965,0,0,0.524812,0,0)">
<stop offset="0" style="stop-color:rgb(42.352942%,72.549021%,42.352942%);stop-opacity:1;"/>
<stop offset="1" style="stop-color:rgb(6.27451%,60.000002%,55.686277%);stop-opacity:1;"/>
</linearGradient>
<linearGradient id="linear5" gradientUnits="userSpaceOnUse" x1="132.089996" y1="3.71" x2="139.240005" y2="3.71" gradientTransform="matrix(0.524965,0,0,0.524812,0,0)">
<stop offset="0" style="stop-color:rgb(42.352942%,72.549021%,42.352942%);stop-opacity:1;"/>
<stop offset="1" style="stop-color:rgb(6.27451%,60.000002%,55.686277%);stop-opacity:1;"/>
</linearGradient>
<linearGradient id="linear6" gradientUnits="userSpaceOnUse" x1="14.38" y1="32.349998" x2="22.120001" y2="32.349998" gradientTransform="matrix(0.524965,0,0,0.524812,0,0)">
<stop offset="0" style="stop-color:rgb(42.352942%,72.549021%,42.352942%);stop-opacity:1;"/>
<stop offset="1" style="stop-color:rgb(6.27451%,60.000002%,55.686277%);stop-opacity:1;"/>
</linearGradient>
<linearGradient id="linear7" gradientUnits="userSpaceOnUse" x1="28.66" y1="32.310001" x2="35.82" y2="32.310001" gradientTransform="matrix(0.524965,0,0,0.524812,0,0)">
<stop offset="0" style="stop-color:rgb(42.352942%,72.549021%,42.352942%);stop-opacity:1;"/>
<stop offset="1" style="stop-color:rgb(6.27451%,60.000002%,55.686277%);stop-opacity:1;"/>
</linearGradient>
<linearGradient id="linear8" gradientUnits="userSpaceOnUse" x1="121.440002" y1="32.330002" x2="128.539993" y2="32.330002" gradientTransform="matrix(0.524965,0,0,0.524812,0,0)">
<stop offset="0" style="stop-color:rgb(42.352942%,72.549021%,42.352942%);stop-opacity:1;"/>
<stop offset="1" style="stop-color:rgb(6.27451%,60.000002%,55.686277%);stop-opacity:1;"/>
</linearGradient>
<linearGradient id="linear9" gradientUnits="userSpaceOnUse" x1="135.720001" y1="32.610001" x2="142.770004" y2="32.610001" gradientTransform="matrix(0.524965,0,0,0.524812,0,0)">
<stop offset="0" style="stop-color:rgb(42.352942%,72.549021%,42.352942%);stop-opacity:1;"/>
<stop offset="1" style="stop-color:rgb(6.27451%,60.000002%,55.686277%);stop-opacity:1;"/>
</linearGradient>
<linearGradient id="linear10" gradientUnits="userSpaceOnUse" x1="149.970001" y1="32.360001" x2="157.070007" y2="32.360001" gradientTransform="matrix(0.524965,0,0,0.524812,0,0)">
<stop offset="0" style="stop-color:rgb(42.352942%,72.549021%,42.352942%);stop-opacity:1;"/>
<stop offset="1" style="stop-color:rgb(6.27451%,60.000002%,55.686277%);stop-opacity:1;"/>
</linearGradient>
<linearGradient id="linear11" gradientUnits="userSpaceOnUse" x1="39.439999" y1="18.110001" x2="46.490002" y2="18.110001" gradientTransform="matrix(0.524965,0,0,0.524812,0,0)">
<stop offset="0" style="stop-color:rgb(42.352942%,72.549021%,42.352942%);stop-opacity:1;"/>
<stop offset="1" style="stop-color:rgb(6.27451%,60.000002%,55.686277%);stop-opacity:1;"/>
</linearGradient>
<linearGradient id="linear12" gradientUnits="userSpaceOnUse" x1="124.970001" y1="18.08" x2="132.570007" y2="18.08" gradientTransform="matrix(0.524965,0,0,0.524812,0,0)">
<stop offset="0" style="stop-color:rgb(42.352942%,72.549021%,42.352942%);stop-opacity:1;"/>
<stop offset="1" style="stop-color:rgb(6.27451%,60.000002%,55.686277%);stop-opacity:1;"/>
</linearGradient>
<linearGradient id="linear13" gradientUnits="userSpaceOnUse" x1="39.439999" y1="46.580002" x2="46.509998" y2="46.580002" gradientTransform="matrix(0.524965,0,0,0.524812,0,0)">
<stop offset="0" style="stop-color:rgb(42.352942%,72.549021%,42.352942%);stop-opacity:1;"/>
<stop offset="1" style="stop-color:rgb(6.27451%,60.000002%,55.686277%);stop-opacity:1;"/>
</linearGradient>
<linearGradient id="linear14" gradientUnits="userSpaceOnUse" x1="42.970001" y1="32.32" x2="50.09" y2="32.32" gradientTransform="matrix(0.524965,0,0,0.524812,0,0)">
<stop offset="0" style="stop-color:rgb(42.352942%,72.549021%,42.352942%);stop-opacity:1;"/>
<stop offset="1" style="stop-color:rgb(6.27451%,60.000002%,55.686277%);stop-opacity:1;"/>
</linearGradient>
<linearGradient id="linear15" gradientUnits="userSpaceOnUse" x1="12.29" y1="118.900002" x2="19.51" y2="118.900002" gradientTransform="matrix(0.524965,0,0,0.524812,0,0)">
<stop offset="0" style="stop-color:rgb(42.352942%,72.549021%,42.352942%);stop-opacity:1;"/>
<stop offset="1" style="stop-color:rgb(6.27451%,60.000002%,55.686277%);stop-opacity:1;"/>
</linearGradient>
<linearGradient id="linear16" gradientUnits="userSpaceOnUse" x1="124.959999" y1="46.59" x2="132.080002" y2="46.59" gradientTransform="matrix(0.524965,0,0,0.524812,0,0)">
<stop offset="0" style="stop-color:rgb(42.352942%,72.549021%,42.352942%);stop-opacity:1;"/>
<stop offset="1" style="stop-color:rgb(6.27451%,60.000002%,55.686277%);stop-opacity:1;"/>
</linearGradient>
<linearGradient id="linear17" gradientUnits="userSpaceOnUse" x1="25.17" y1="46.619999" x2="32.200001" y2="46.619999" gradientTransform="matrix(0.524965,0,0,0.524812,0,0)">
<stop offset="0" style="stop-color:rgb(42.352942%,72.549021%,42.352942%);stop-opacity:1;"/>
<stop offset="1" style="stop-color:rgb(6.27451%,60.000002%,55.686277%);stop-opacity:1;"/>
</linearGradient>
<linearGradient id="linear18" gradientUnits="userSpaceOnUse" x1="139.320007" y1="46.540001" x2="146.279999" y2="46.540001" gradientTransform="matrix(0.524965,0,0,0.524812,0,0)">
<stop offset="0" style="stop-color:rgb(42.352942%,72.549021%,42.352942%);stop-opacity:1;"/>
<stop offset="1" style="stop-color:rgb(6.27451%,60.000002%,55.686277%);stop-opacity:1;"/>
</linearGradient>
<linearGradient id="linear19" gradientUnits="userSpaceOnUse" x1="25.190001" y1="18.360001" x2="32.16" y2="18.360001" gradientTransform="matrix(0.524965,0,0,0.524812,0,0)">
<stop offset="0" style="stop-color:rgb(42.352942%,72.549021%,42.352942%);stop-opacity:1;"/>
<stop offset="1" style="stop-color:rgb(6.27451%,60.000002%,55.686277%);stop-opacity:1;"/>
</linearGradient>
<linearGradient id="linear20" gradientUnits="userSpaceOnUse" x1="139.259995" y1="18.059999" x2="146.410004" y2="18.059999" gradientTransform="matrix(0.524965,0,0,0.524812,0,0)">
<stop offset="0" style="stop-color:rgb(42.352942%,72.549021%,42.352942%);stop-opacity:1;"/>
<stop offset="1" style="stop-color:rgb(6.27451%,60.000002%,55.686277%);stop-opacity:1;"/>
</linearGradient>
<linearGradient id="linear21" gradientUnits="userSpaceOnUse" x1="74.849998" y1="32.439999" x2="96.610001" y2="32.439999" gradientTransform="matrix(0.524965,0,0,0.524812,0,0)">
<stop offset="0" style="stop-color:rgb(42.352942%,72.549021%,42.352942%);stop-opacity:1;"/>
<stop offset="1" style="stop-color:rgb(6.27451%,60.000002%,55.686277%);stop-opacity:1;"/>
</linearGradient>
</defs>
<g id="surface1">
<path style=" stroke:none;fill-rule:nonzero;fill:url(#linear0);" d="M 14.882812 50.476562 C 16.09375 45.132812 17.167969 43.742188 21.550781 41.632812 C 19.976562 36.820312 20.789062 33.164062 23.945312 31.0625 C 26.238281 29.558594 29.265625 29.796875 31.292969 31.644531 C 34.070312 34.113281 34.53125 37.992188 32.484375 42.285156 C 35.523438 43.9375 37.476562 47.058594 37.632812 50.511719 L 52.355469 50.511719 C 52.710938 46.980469 54.28125 44.125 57.488281 42.363281 C 55.53125 37.171875 56.117188 33.53125 59.253906 31.238281 C 61.363281 29.691406 64.230469 29.691406 66.339844 31.238281 C 69.300781 33.421875 70.089844 37.234375 68.542969 41.261719 C 70.121094 42.546875 71.867188 43.574219 73.011719 45.074219 C 74.15625 46.578125 74.632812 48.511719 75.527344 50.539062 C 77.496094 50.492188 78.675781 52.003906 79.640625 53.980469 C 82.792969 60.40625 86.089844 66.765625 89.261719 73.183594 C 89.695312 74.097656 89.933594 75.09375 89.953125 76.109375 C 90.03125 79.988281 89.984375 83.875 89.980469 87.757812 C 89.980469 89.011719 89.394531 89.859375 88.117188 89.96875 C 86.980469 90.089844 86.195312 89.140625 86.140625 87.722656 C 86.140625 87.292969 86.140625 86.863281 86.140625 86.429688 L 86.140625 84.535156 L 82.519531 84.535156 C 82.519531 85.585938 82.519531 86.636719 82.519531 87.6875 C 82.519531 88.992188 81.921875 89.972656 80.539062 89.949219 C 79.160156 89.921875 78.691406 88.957031 78.664062 87.621094 C 78.625 85.152344 78.703125 82.640625 78.308594 80.222656 C 77.785156 77.148438 75.371094 75.09375 72.703125 75.101562 C 72.019531 75.109375 71.347656 75.289062 70.753906 75.625 C 67.925781 77.246094 65.164062 77.230469 62.3125 75.625 C 61.679688 75.3125 60.949219 75.261719 60.277344 75.484375 C 57.558594 76.585938 56.484375 78.863281 56.34375 81.628906 C 56.246094 83.566406 56.34375 85.511719 56.300781 87.453125 C 56.300781 89.027344 55.546875 89.941406 54.375 89.949219 C 53.207031 89.953125 52.492188 89.050781 52.464844 87.464844 C 52.464844 86.605469 52.464844 85.738281 52.4375 84.878906 C 52.40625 84.738281 52.359375 84.601562 52.296875 84.472656 L 37.550781 84.472656 C 37.550781 85.523438 37.519531 86.460938 37.550781 87.417969 C 37.601562 88.777344 37.167969 89.796875 35.683594 89.933594 C 34.464844 90.046875 33.71875 89.011719 33.703125 87.339844 C 33.703125 85.507812 33.761719 83.664062 33.671875 81.839844 C 33.554688 79.339844 32.574219 77.246094 30.425781 75.828125 C 29.445312 75.183594 28.546875 74.9375 27.339844 75.714844 C 24.941406 77.261719 22.332031 77.207031 19.808594 75.882812 C 16.914062 74.371094 13.785156 75.222656 12.367188 78.179688 C 11.792969 79.511719 11.457031 80.933594 11.367188 82.378906 C 11.253906 84.15625 11.246094 85.9375 11.335938 87.71875 C 11.335938 88.996094 10.808594 89.882812 9.511719 89.933594 C 8.136719 89.972656 7.527344 89.023438 7.496094 87.710938 C 7.496094 86.695312 7.496094 85.675781 7.496094 84.519531 L 3.875 84.519531 C 3.875 85.539062 3.875 86.59375 3.875 87.667969 C 3.875 88.996094 3.316406 89.957031 1.941406 89.941406 C 0.566406 89.925781 0 88.976562 0.0273438 87.644531 C 0.0273438 83.542969 -0.0664062 79.441406 0.0898438 75.347656 C 0.132812 74.1875 0.867188 73.039062 1.363281 71.925781 C 1.863281 70.8125 2.492188 69.601562 3.109375 68.460938 C 3.722656 67.324219 4.5625 66.796875 5.765625 67.410156 C 6.964844 68.027344 7.050781 69.035156 6.503906 70.160156 C 6.085938 71.035156 5.652344 71.898438 5.128906 72.964844 C 8.804688 73.253906 12.277344 73.488281 15.523438 71.054688 C 14.292969 66.089844 15.113281 61.507812 20.328125 58.832031 C 23.296875 57.308594 26.289062 57.929688 28.726562 60.175781 C 32.21875 63.398438 32.667969 67.378906 30.941406 72.152344 C 32.386719 72.476562 33.734375 73.027344 35.089844 73.042969 C 41.511719 73.136719 47.929688 73.136719 54.351562 73.042969 C 55.882812 73.015625 57.40625 72.519531 59.074219 72.183594 C 57.316406 67.171875 57.824219 63.007812 61.75 59.800781 C 64.328125 57.703125 67.351562 57.378906 70.214844 59.082031 C 74.9375 61.902344 75.714844 66.304688 74.464844 71.085938 C 77.617188 73.480469 81.105469 73.226562 84.761719 72.980469 C 84.644531 72.585938 84.5 72.203125 84.335938 71.824219 C 81.605469 66.394531 78.84375 60.976562 76.152344 55.523438 C 75.867188 54.773438 75.109375 54.308594 74.308594 54.398438 C 54.777344 54.421875 35.246094 54.421875 15.710938 54.398438 C 14.773438 54.398438 14.199219 54.636719 13.878906 55.539062 C 13.703125 56.066406 13.464844 56.683594 13.066406 56.894531 C 12.425781 57.234375 11.429688 57.609375 10.964844 57.335938 C 10.300781 56.875 9.898438 56.121094 9.886719 55.308594 C 10.226562 52.710938 12.125 50.980469 14.882812 50.476562 Z M 28.53125 67.394531 C 27.800781 65.953125 27.308594 64.445312 26.382812 63.285156 C 25.054688 61.617188 22.867188 61.503906 21.136719 62.679688 C 18.058594 64.777344 18.074219 70.203125 21.136719 72.320312 C 22.875 73.59375 25.320312 73.214844 26.59375 71.472656 C 27.460938 70.324219 27.859375 68.914062 28.546875 67.394531 Z M 71.578125 67.324219 C 70.816406 65.863281 70.296875 64.367188 69.359375 63.214844 C 68.054688 61.640625 65.929688 61.523438 64.25 62.640625 C 61.160156 64.703125 61.101562 70.140625 64.160156 72.28125 C 64.984375 72.910156 66.027344 73.1875 67.054688 73.042969 C 68.082031 72.898438 69.011719 72.351562 69.632812 71.519531 C 70.492188 70.351562 70.902344 68.871094 71.601562 67.324219 Z M 33.597656 50.519531 C 33.648438 48.066406 32.152344 45.796875 29.734375 45.410156 C 27.566406 45.058594 25.359375 45.03125 23.1875 45.339844 C 20.5625 45.714844 19.167969 47.664062 18.933594 50.519531 Z M 56.414062 50.464844 L 71.144531 50.464844 C 70.695312 47.378906 69.179688 45.554688 66.417969 45.21875 C 64.601562 44.972656 62.761719 44.972656 60.949219 45.21875 C 58.304688 45.535156 56.335938 47.804688 56.398438 50.464844 Z M 36.464844 76.9375 C 36.6875 77.945312 36.964844 78.9375 37.304688 79.914062 C 37.527344 80.292969 37.917969 80.539062 38.355469 80.578125 C 42.773438 80.628906 47.195312 80.628906 51.621094 80.578125 C 52.058594 80.539062 52.453125 80.285156 52.667969 79.902344 C 52.96875 78.929688 53.214844 77.9375 53.398438 76.9375 Z M 24.425781 37.214844 C 24.460938 37.832031 24.558594 38.441406 24.710938 39.039062 C 25.167969 40.175781 25.792969 41.199219 27.226562 41.199219 C 28.484375 41.246094 29.558594 40.296875 29.664062 39.039062 C 29.8125 37.636719 29.589844 36.21875 29.019531 34.925781 C 28.320312 33.488281 26.3125 33.554688 25.386719 34.925781 C 24.976562 35.648438 24.65625 36.417969 24.425781 37.214844 Z M 65.488281 37.890625 C 65.488281 35.519531 64.367188 33.972656 62.832031 33.933594 C 61.300781 33.898438 59.976562 35.582031 60.039062 37.640625 C 60.039062 38.125 60.121094 38.609375 60.285156 39.066406 C 60.742188 40.207031 61.378906 41.214844 62.8125 41.199219 C 64.167969 41.199219 64.800781 40.246094 65.242188 39.160156 C 65.375 38.75 65.457031 38.324219 65.488281 37.890625 Z M 81.339844 76.964844 L 82.425781 80.492188 L 86.042969 80.492188 L 86.042969 76.964844 Z M 3.957031 80.523438 L 7.632812 80.523438 L 8.5 76.96875 L 3.957031 76.96875 Z M 3.957031 80.523438 "/>
<path style=" stroke:none;fill-rule:nonzero;fill:url(#linear1);" d="M 33.707031 29.832031 C 33.113281 29.359375 32.441406 29.042969 32.132812 28.519531 C 30.875 26.519531 29.6875 24.464844 28.535156 22.394531 C 27.769531 21.011719 28.160156 20.222656 29.65625 19.21875 C 30.464844 18.695312 31.96875 18.695312 31.753906 17.171875 C 31.609375 16.503906 31.28125 15.890625 30.800781 15.402344 C 30.375 14.953125 29.691406 14.753906 29.15625 14.394531 C 28.691406 14.152344 28.351562 13.726562 28.222656 13.21875 C 28.09375 12.714844 28.183594 12.175781 28.472656 11.738281 C 29.648438 9.640625 30.851562 7.542969 32.121094 5.441406 C 32.941406 4.109375 33.765625 4.082031 35.445312 4.917969 C 36.359375 5.375 37.195312 6.660156 38.410156 5.566406 C 38.839844 5.167969 39.136719 4.648438 39.273438 4.078125 C 39.429688 3.410156 39.273438 2.675781 39.351562 1.980469 C 39.5 0.824219 40.148438 0.0898438 41.367188 0.0742188 C 43.753906 0.0742188 46.195312 0.0507812 48.613281 0.109375 C 50.128906 0.140625 50.652344 0.980469 50.757812 2.914062 C 50.8125 3.835938 50.175781 5.089844 51.566406 5.535156 C 52.167969 5.722656 52.8125 5.738281 53.421875 5.578125 C 54.023438 5.351562 54.59375 5.050781 55.121094 4.679688 C 55.570312 4.355469 56.140625 4.25 56.675781 4.390625 C 57.210938 4.527344 57.660156 4.898438 57.894531 5.398438 C 59.160156 7.46875 60.386719 9.566406 61.566406 11.699219 C 62.335938 13.089844 61.648438 13.964844 60.433594 14.742188 C 59.578125 15.292969 58.019531 15.351562 58.335938 16.953125 C 58.480469 17.566406 58.800781 18.125 59.253906 18.5625 C 59.769531 18.949219 60.320312 19.285156 60.902344 19.566406 C 61.917969 20.222656 62.214844 21.140625 61.632812 22.1875 C 60.433594 24.355469 59.210938 26.511719 57.902344 28.613281 C 57.054688 29.984375 55.902344 29.664062 54.660156 29.03125 C 53.75 28.582031 52.917969 27.273438 51.6875 28.355469 C 51.257812 28.761719 50.957031 29.285156 50.820312 29.863281 C 50.664062 30.527344 50.820312 31.261719 50.742188 31.960938 C 50.570312 33.0625 49.988281 33.804688 48.820312 33.824219 C 46.292969 33.875 43.757812 33.875 41.226562 33.824219 C 39.996094 33.824219 39.394531 33.011719 39.289062 31.84375 C 39.230469 31.152344 39.289062 30.445312 39.257812 29.746094 C 39.261719 29.132812 38.9375 28.5625 38.40625 28.253906 C 37.878906 27.945312 37.222656 27.941406 36.691406 28.246094 C 35.753906 28.742188 34.820312 29.242188 33.707031 29.832031 Z M 47.046875 29.949219 C 46.371094 27.285156 47.621094 26.144531 49.671875 24.875 C 51.898438 23.507812 53.566406 23.617188 55.445312 25.144531 L 57.390625 21.789062 C 54.695312 21.097656 54.300781 19.445312 54.238281 17.007812 C 54.164062 14.4375 54.921875 12.925781 57.347656 12.082031 L 55.410156 8.796875 C 53.453125 10.484375 51.851562 10.371094 49.667969 9.101562 C 47.484375 7.832031 46.40625 6.550781 46.925781 4.0625 L 42.910156 4.0625 C 43.738281 6.722656 42.386719 7.789062 40.34375 9.070312 C 38.121094 10.453125 36.464844 10.429688 34.539062 8.820312 L 32.605469 12.144531 C 35.1875 12.925781 35.699219 14.511719 35.753906 16.96875 C 35.796875 19.535156 35.105469 21.066406 32.632812 21.859375 C 33.3125 23.023438 33.898438 24.027344 34.570312 25.179688 C 36.5 23.53125 38.113281 23.5625 40.308594 24.855469 C 42.5 26.144531 43.570312 27.378906 43.046875 29.949219 Z M 47.046875 29.949219 "/>
<path style=" stroke:none;fill-rule:nonzero;fill:url(#linear2);" d="M 28.207031 2.625 C 27.714844 2.960938 27.039062 3.746094 26.28125 3.851562 C 25.113281 4.015625 24.363281 3.105469 24.398438 1.945312 C 24.382812 1.449219 24.578125 0.96875 24.9375 0.621094 C 25.296875 0.277344 25.78125 0.0976562 26.28125 0.132812 C 27.464844 0.148438 28.113281 0.875 28.207031 2.625 Z M 28.207031 2.625 "/>
<path style=" stroke:none;fill-rule:nonzero;fill:url(#linear3);" d="M 61.792969 2.585938 C 61.914062 0.851562 62.570312 0.125 63.757812 0.132812 C 64.253906 0.101562 64.742188 0.285156 65.097656 0.636719 C 65.453125 0.988281 65.644531 1.472656 65.621094 1.972656 C 65.621094 3.132812 64.875 4.03125 63.710938 3.847656 C 62.9375 3.730469 62.28125 2.933594 61.792969 2.585938 Z M 61.792969 2.585938 "/>
<path style=" stroke:none;fill-rule:nonzero;fill:url(#linear4);" d="M 18.75 4.675781 C 17.894531 3.472656 17.070312 2.8125 16.957031 2.050781 C 16.800781 0.90625 17.648438 0.105469 18.835938 0.136719 C 20.023438 0.167969 20.863281 0.964844 20.632812 2.097656 C 20.472656 2.886719 19.644531 3.511719 18.75 4.675781 Z M 18.75 4.675781 "/>
<path style=" stroke:none;fill-rule:nonzero;fill:url(#linear5);" d="M 70.738281 0 C 72.382812 0.277344 73.160156 0.917969 73.097656 2.097656 C 73.105469 2.597656 72.902344 3.074219 72.539062 3.414062 C 72.175781 3.753906 71.6875 3.925781 71.191406 3.882812 C 70 3.851562 69.160156 3.082031 69.378906 1.921875 C 69.527344 1.164062 70.34375 0.523438 70.738281 0 Z M 70.738281 0 "/>
<path style=" stroke:none;fill-rule:nonzero;fill:url(#linear6);" d="M 11.613281 17.289062 C 10.933594 17.8125 10.324219 18.589844 9.570312 18.773438 C 8.375 19.0625 7.601562 18.191406 7.554688 17.046875 C 7.484375 16.523438 7.660156 16 8.03125 15.628906 C 8.402344 15.257812 8.929688 15.078125 9.449219 15.144531 C 10.210938 15.242188 10.882812 16.054688 11.589844 16.542969 Z M 11.613281 17.289062 "/>
<path style=" stroke:none;fill-rule:nonzero;fill:url(#linear7);" d="M 18.804688 17.597656 C 18.351562 17.894531 17.703125 18.648438 16.941406 18.777344 C 15.726562 18.992188 15.035156 18.078125 15.046875 16.929688 C 15.023438 16.433594 15.214844 15.953125 15.566406 15.605469 C 15.917969 15.257812 16.402344 15.074219 16.898438 15.105469 C 18.054688 15.105469 18.765625 15.785156 18.804688 17.597656 Z M 18.804688 17.597656 "/>
<path style=" stroke:none;fill-rule:nonzero;fill:url(#linear8);" d="M 67.480469 17.035156 C 67.328125 18.164062 66.734375 18.894531 65.496094 18.824219 C 65.003906 18.84375 64.53125 18.648438 64.195312 18.289062 C 63.863281 17.929688 63.699219 17.445312 63.75 16.957031 C 63.703125 16.464844 63.875 15.976562 64.21875 15.621094 C 64.5625 15.265625 65.042969 15.074219 65.535156 15.105469 C 66.695312 15.074219 67.382812 15.800781 67.480469 17.035156 Z M 67.480469 17.035156 "/>
<path style=" stroke:none;fill-rule:nonzero;fill:url(#linear9);" d="M 72.679688 19.117188 C 72.199219 18.429688 71.441406 17.792969 71.289062 17.019531 C 71.042969 15.8125 71.945312 15.09375 73.089844 15.089844 C 74.234375 15.082031 75.105469 15.917969 74.921875 17.046875 C 74.800781 17.792969 73.960938 18.421875 73.449219 19.101562 Z M 72.679688 19.117188 "/>
<path style=" stroke:none;fill-rule:nonzero;fill:url(#linear10);" d="M 79.957031 18.863281 C 79.648438 18.410156 78.882812 17.757812 78.753906 17 C 78.554688 15.800781 79.464844 15.09375 80.617188 15.105469 C 81.113281 15.082031 81.597656 15.273438 81.949219 15.625 C 82.296875 15.976562 82.480469 16.460938 82.457031 16.957031 C 82.449219 18.105469 81.757812 18.820312 79.957031 18.863281 Z M 79.957031 18.863281 "/>
<path style=" stroke:none;fill-rule:nonzero;fill:url(#linear11);" d="M 22.46875 11.402344 C 21.34375 11.21875 20.652344 10.613281 20.703125 9.378906 C 20.6875 8.886719 20.882812 8.410156 21.238281 8.074219 C 21.597656 7.734375 22.082031 7.566406 22.574219 7.609375 C 23.066406 7.585938 23.546875 7.769531 23.898438 8.121094 C 24.246094 8.472656 24.429688 8.953125 24.40625 9.445312 C 24.417969 10.636719 23.710938 11.300781 22.46875 11.402344 Z M 22.46875 11.402344 "/>
<path style=" stroke:none;fill-rule:nonzero;fill:url(#linear12);" d="M 69.59375 9.859375 C 68.917969 10.386719 68.292969 11.164062 67.542969 11.316406 C 66.359375 11.546875 65.621094 10.675781 65.605469 9.507812 C 65.589844 8.34375 66.390625 7.484375 67.519531 7.652344 C 68.265625 7.761719 68.902344 8.597656 69.589844 9.109375 Z M 69.59375 9.859375 "/>
<path style=" stroke:none;fill-rule:nonzero;fill:url(#linear13);" d="M 22.503906 22.566406 C 23.707031 22.652344 24.433594 23.316406 24.410156 24.492188 C 24.453125 24.992188 24.273438 25.480469 23.917969 25.832031 C 23.5625 26.183594 23.070312 26.359375 22.574219 26.308594 C 22.085938 26.367188 21.597656 26.210938 21.234375 25.878906 C 20.875 25.546875 20.675781 25.074219 20.695312 24.582031 C 20.636719 23.34375 21.335938 22.734375 22.503906 22.566406 Z M 22.503906 22.566406 "/>
<path style=" stroke:none;fill-rule:nonzero;fill:url(#linear14);" d="M 26.296875 17.550781 C 25.859375 17.859375 25.246094 18.625 24.472656 18.777344 C 23.277344 19.007812 22.578125 18.152344 22.558594 16.972656 C 22.515625 16.480469 22.6875 15.992188 23.027344 15.636719 C 23.371094 15.277344 23.847656 15.085938 24.34375 15.105469 C 25.492188 15.078125 26.25 15.746094 26.296875 17.550781 Z M 26.296875 17.550781 "/>
<path style=" stroke:none;fill-rule:nonzero;fill:url(#linear15);" d="M 10.242188 62.976562 C 9.71875 63.328125 9.019531 64.105469 8.253906 64.199219 C 7.066406 64.34375 6.375 63.488281 6.457031 62.242188 C 6.542969 61 7.277344 60.53125 8.414062 60.5625 C 9.554688 60.59375 10.078125 61.402344 10.242188 62.976562 Z M 10.242188 62.976562 "/>
<path style=" stroke:none;fill-rule:nonzero;fill:url(#linear16);" d="M 69.335938 25.074219 C 68.886719 25.378906 68.238281 26.125 67.480469 26.257812 C 66.28125 26.464844 65.589844 25.59375 65.601562 24.425781 C 65.566406 23.933594 65.75 23.449219 66.097656 23.101562 C 66.449219 22.753906 66.933594 22.574219 67.425781 22.609375 C 68.617188 22.609375 69.296875 23.28125 69.335938 25.074219 Z M 69.335938 25.074219 "/>
<path style=" stroke:none;fill-rule:nonzero;fill:url(#linear17);" d="M 14.976562 26.324219 C 14.484375 26.339844 14.007812 26.140625 13.671875 25.78125 C 13.335938 25.421875 13.167969 24.9375 13.214844 24.445312 C 13.167969 23.949219 13.34375 23.457031 13.695312 23.101562 C 14.046875 22.746094 14.539062 22.566406 15.035156 22.609375 C 15.5625 22.554688 16.082031 22.746094 16.449219 23.128906 C 16.8125 23.511719 16.980469 24.042969 16.898438 24.566406 C 16.847656 25.714844 16.148438 26.292969 14.976562 26.324219 Z M 14.976562 26.324219 "/>
<path style=" stroke:none;fill-rule:nonzero;fill:url(#linear18);" d="M 74.351562 22.566406 C 76.003906 22.699219 76.75 23.21875 76.792969 24.394531 C 76.832031 25.570312 76.265625 26.261719 75.085938 26.324219 C 73.90625 26.386719 72.984375 25.710938 73.160156 24.515625 C 73.265625 23.722656 74.019531 23.042969 74.351562 22.566406 Z M 74.351562 22.566406 "/>
<path style=" stroke:none;fill-rule:nonzero;fill:url(#linear19);" d="M 14.699219 11.65625 C 14.207031 10.96875 13.421875 10.339844 13.269531 9.558594 C 13.035156 8.382812 13.902344 7.597656 15.046875 7.589844 C 16.191406 7.578125 17.078125 8.34375 16.855469 9.523438 C 16.714844 10.292969 15.941406 10.933594 15.460938 11.625 Z M 14.699219 11.65625 "/>
<path style=" stroke:none;fill-rule:nonzero;fill:url(#linear20);" d="M 76.859375 10.050781 C 76.386719 10.390625 75.746094 11.183594 74.996094 11.308594 C 73.824219 11.507812 73.121094 10.675781 73.113281 9.472656 C 73.066406 8.980469 73.238281 8.492188 73.582031 8.136719 C 73.921875 7.777344 74.402344 7.585938 74.898438 7.609375 C 76.058594 7.582031 76.738281 8.3125 76.859375 10.050781 Z M 76.859375 10.050781 "/>
<path style=" stroke:none;fill-rule:nonzero;fill:url(#linear21);" d="M 50.71875 16.988281 C 50.695312 20.140625 48.117188 22.679688 44.964844 22.65625 C 41.808594 22.632812 39.269531 20.058594 39.292969 16.902344 C 39.316406 13.75 41.894531 11.214844 45.046875 11.234375 C 48.203125 11.257812 50.738281 13.835938 50.71875 16.988281 Z M 47.125 17.414062 L 47.15625 16.648438 C 46.453125 16.167969 45.804688 15.449219 45.058594 15.28125 C 43.929688 15.035156 43.21875 15.875 43.1875 16.957031 C 43.15625 18.039062 43.90625 18.898438 44.972656 18.757812 C 45.71875 18.652344 46.402344 17.886719 47.125 17.414062 Z M 47.125 17.414062 "/>
</g>
</svg>
