<?xml version="1.0" encoding="UTF-8"?>
<svg xmlns="http://www.w3.org/2000/svg" xmlns:xlink="http://www.w3.org/1999/xlink" width="90" height="90" viewBox="0 0 90 90" version="1.1">
<defs>
<linearGradient id="linear0" gradientUnits="userSpaceOnUse" x1="45.369999" y1="157.089996" x2="127.550003" y2="157.089996" gradientTransform="matrix(0.520713,0,0,0.524476,0,0)">
<stop offset="0" style="stop-color:rgb(42.352942%,72.549021%,42.352942%);stop-opacity:1;"/>
<stop offset="1" style="stop-color:rgb(6.27451%,60.000002%,55.686277%);stop-opacity:1;"/>
</linearGradient>
<linearGradient id="linear1" gradientUnits="userSpaceOnUse" x1="33.939999" y1="7.52" x2="138.490005" y2="7.52" gradientTransform="matrix(0.520713,0,0,0.524476,0,0)">
<stop offset="0" style="stop-color:rgb(42.352942%,72.549021%,42.352942%);stop-opacity:1;"/>
<stop offset="1" style="stop-color:rgb(6.27451%,60.000002%,55.686277%);stop-opacity:1;"/>
</linearGradient>
<linearGradient id="linear2" gradientUnits="userSpaceOnUse" x1="0" y1="77.040001" x2="172.839996" y2="77.040001" gradientTransform="matrix(0.520713,0,0,0.524476,0,0)">
<stop offset="0" style="stop-color:rgb(42.352942%,72.549021%,42.352942%);stop-opacity:1;"/>
<stop offset="1" style="stop-color:rgb(6.27451%,60.000002%,55.686277%);stop-opacity:1;"/>
</linearGradient>
</defs>
<g id="surface1">
<path style=" stroke:none;fill-rule:nonzero;fill:url(#linear0);" d="M 23.625 90 C 24.902344 83.636719 25.53125 83.269531 36.875 82.265625 C 37 79.945312 37.121094 77.570312 37.261719 74.882812 C 39.808594 75.488281 42.230469 76.519531 44.644531 76.503906 C 47.144531 76.503906 49.632812 75.457031 52.484375 74.785156 L 52.898438 82.449219 C 58.628906 82.648438 64.875 81.65625 66.4375 90 Z M 23.625 90 "/>
<path style=" stroke:none;fill-rule:nonzero;fill:url(#linear1);" d="M 44.410156 7.867188 C 37.4375 7.867188 30.46875 7.867188 23.496094 7.867188 C 20.550781 7.867188 17.605469 7.726562 17.679688 3.816406 C 17.742188 0.335938 20.410156 0 23.238281 0 C 37.671875 0.0507812 52.105469 0.0507812 66.53125 0 C 69.359375 0 72.054688 0.292969 72.113281 3.8125 C 72.171875 7.667969 69.28125 7.914062 66.300781 7.894531 C 59.007812 7.835938 51.707031 7.867188 44.410156 7.867188 Z M 44.410156 7.867188 "/>
<path style=" stroke:none;fill-rule:nonzero;fill:url(#linear2);" d="M 85.027344 10.136719 C 80.945312 7.113281 76.085938 7.199219 71.34375 9.90625 C 69.4375 11.019531 67.292969 11.644531 65.09375 11.734375 C 51.78125 11.894531 38.460938 11.921875 25.144531 11.734375 C 22.746094 11.695312 20.171875 10.789062 18.011719 9.632812 C 13.941406 7.46875 9.945312 7.074219 5.976562 9.367188 C 1.878906 11.742188 -0.714844 15.53125 0.175781 20.3125 C 0.894531 24.1875 2.261719 28.351562 4.5625 31.433594 C 8.761719 36.992188 13.933594 41.804688 18.621094 47 C 20.410156 48.976562 21.996094 51.140625 22.988281 52.378906 L 19.964844 58.148438 L 28.007812 56.496094 C 30.378906 59.917969 32.988281 64.648438 36.507812 68.558594 C 41.867188 74.507812 47.960938 74.453125 53.320312 68.460938 C 56.742188 64.632812 59.292969 60.003906 61.792969 56.398438 L 69.472656 58.496094 C 68.753906 56.644531 68.042969 54.792969 66.871094 51.75 C 70.910156 47.507812 76.117188 42.601562 80.621094 37.121094 C 84.050781 33.039062 86.917969 28.507812 89.136719 23.648438 C 91.328125 18.660156 89.125 13.175781 85.027344 10.136719 Z M 8.128906 29.296875 C 6.597656 27.5 5.570312 25.144531 4.757812 22.882812 C 2.976562 17.894531 5.28125 13.417969 9.992188 12.140625 C 14.257812 10.988281 18.492188 13.933594 19.402344 18.996094 C 21.011719 27.914062 22.425781 36.886719 24.140625 47.140625 C 18.261719 40.636719 13.054688 35.085938 8.128906 29.296875 Z M 48.476562 44.972656 L 43.269531 45.292969 L 43.269531 30.53125 C 41.546875 30.324219 40.199219 30.53125 39.40625 29.96875 C 38.617188 29.40625 37.984375 27.308594 38.167969 27.179688 C 41.261719 25.007812 44.496094 23.039062 48.488281 20.535156 Z M 85.023438 22.71875 C 83.691406 26.199219 81.773438 29.425781 79.355469 32.25 C 75.050781 37.027344 70.144531 41.265625 65.964844 45.273438 C 67.371094 36.828125 68.78125 27.71875 70.453125 18.65625 C 71.335938 13.878906 75.5625 11.078125 79.667969 12.105469 C 84.390625 13.296875 86.960938 17.875 85.023438 22.71875 Z M 85.023438 22.71875 "/>
</g>
</svg>
