<svg xmlns="http://www.w3.org/2000/svg" xmlns:xlink="http://www.w3.org/1999/xlink" viewBox="0 0 157.38 172.79"><defs><style>.cls-1{fill:url(#linear-gradient);}.cls-2{fill:url(#linear-gradient-2);}.cls-3{fill:url(#linear-gradient-3);}</style><linearGradient id="linear-gradient" y1="86.39" x2="157.38" y2="86.39" gradientUnits="userSpaceOnUse"><stop offset="0" stop-color="#6cb96c"/><stop offset="1" stop-color="#10998e"/></linearGradient><linearGradient id="linear-gradient-2" x1="45.47" y1="116.56" x2="137.94" y2="116.56" xlink:href="#linear-gradient"/><linearGradient id="linear-gradient-3" x1="84.06" y1="53.14" x2="137.64" y2="53.14" xlink:href="#linear-gradient"/></defs><title>Asset 9_icon</title><g id="Layer_2" data-name="Layer 2"><g id="Layer_1-2" data-name="Layer 1"><path class="cls-1" d="M119.14,15.91c-1.8-2-4.24-3.52-3.86-6.82.25-2.2-.49-4.35-2.87-4.83C93.76.57,75.13-4.08,57,6.55c-7.1,4.15-14.42,7.9-20.88,13S23.9,31.52,13.72,29c-4-1-7.54,4.39-4.05,5.9,11.14,4.84,2.38,9.21.32,12.93C3.74,59.1-.12,70.75,0,83.89a225.56,225.56,0,0,0,5.9,47.75,196.17,196.17,0,0,0,9.93,32.28c1.08,2.6,2.42,5.36,5.9,4.38s3.34-3.87,2.54-6.72c-.41-1.5-1.84-2.88-.5-4.52,6.2,4.82,12.35,9.69,18.61,14.43,2.09,1.58,4.64,2,6.37-.39,1.59-2.21,1-4.59-1.16-6.33s-4.51-3.14-6.56-4.94C26.48,147,13.1,133.74,10.86,112.77c-2.31-21.6-5.39-42.95,8-62.55,8.39-12.28,12.36-13,24.16-2.91-19.28,5.82-23.18,11-22.78,30.37,0,2.06.2,4.11.33,6.17.81,12.87,8.85,18.86,21.45,16.22,14.38-3,19.6-14.74,25.49-26,3.21-6.14,2.43-11.47-1-17.29C59.34,44.59,48.25,37.59,35.63,32.3,52.4,14.47,81.21,4.14,97.76,12.46c-6.33-.93-6.74,7.56-11,2.89-5.53-6.07-7.56-2.21-9.66,1.89-5.28,10.32-4.27,21.56-2.37,32.24,1.18,6.6,5.43,4.62,8.1-.19,1.07-12.54,7-22.34,16.77-30,3.79-3,6.78-3.38,10.42.42,6.81,7.08,13.85,13.91,17.91,23.1,5.7,6.78,8.7,14.93,11.62,23.11C145.6,81.69,148.22,98,148.8,115c.59,17.4-5.12,32.92-11.31,48.52-1.28,3.23-3.2,6.87,1.28,8.75,4,1.66,5.38-2,6.49-4.83,4.42-11.1,9.83-22,11.11-34C161.11,88.91,149.22,49.48,119.14,15.91ZM59,66.13c1.85,8.55-5,15-10.51,20.86a13.81,13.81,0,0,1-15.92,3.59c-6.05-2.45-2.93-8.2-3.8-13.66,4.8.6,10.85,3.32,12.19-3.8,1.45-7.72-5.66-6.63-10.16-8.26C33.36,57.37,39.08,57,45,57.49,51.12,58,57.89,60.88,59,66.13Z"/><path class="cls-2" d="M131.87,103.51c-10.5-12.76-24.43-20.83-40.05-25.61C79.36,74.08,67.3,80,62.26,91.78c-2.55,6-4.55,12.2-4.47,18.85.14,10.58-3.22,20.14-8.37,29.21-6.28,11-5.8,12.27,6.75,15.55a46.68,46.68,0,0,0,7.47,1c15.48.22,26.42-6.87,37.46-13.82,6.6-4.15,12.57-9.44,20.65-11C138.58,128.35,142.88,116.87,131.87,103.51ZM98.78,92.07c.84,1.76-1.21,3.05-3,3.11-5.44.16-8.72-2.53-10-9C91.73,86.72,96.47,87.23,98.78,92.07ZM76,88.14c.48,6,4.39,10.4-.53,14.36-1.47,1.18-3.18-.43-4.1-1.8C68,95.72,71.76,92.87,76,88.14Zm-.09,55.73c-1.39,4.29-5.58,3.38-10.8,4.84,1.53-5.5,3.91-8.18,8.15-8.46C74.06,140.19,76.14,143,75.86,143.87Zm42.54-33.09c-6.07-3.08-11.26-.26-14,4.77-2.89,5.33-5.49,8.52-12,6.31a5.14,5.14,0,0,0-4.6,1.76c-5.71,10.11-16,7.57-25.12,9.58,1-3.23,2.53-6,2.57-8.85.11-8.49.43-13.19,12.39-14.25,6.78-.61,15.28-6.36,23.83-7.08,4.43-.38,4.09-9.51,10.13-5.41,6.85,4.65,14.25,9.1,17.07,20.32C124.12,114.71,121.47,112.34,118.4,110.78Z"/><path class="cls-3" d="M126.66,43.49A27.42,27.42,0,0,0,124,39.18c-5.18-6.5-9.45-15.45-19.28-14.19C94.58,26.28,89.82,35,85.82,43.51c-.84,1.79-2,3.58-1.55,5.77-2.43,17.85,16.43,31.22,30.5,32.05,11.78.68,18.53-2.93,22.87-12.84C137.32,58.69,130.47,51.75,126.66,43.49ZM122.9,71.68c-7.91,1-15.56,1-22.14-4.89-11.21-10.07-10.67-16.5,3.59-26.06-2.6,15.21-1.5,15.57,13.7,14,6-.62,6.63,7.3,9,11.68C129,70,125.58,71.32,122.9,71.68Z"/></g></g></svg>