<svg xmlns="http://www.w3.org/2000/svg" xmlns:xlink="http://www.w3.org/1999/xlink" viewBox="0 0 172.78 172.79"><defs><style>.cls-1{fill:url(#linear-gradient);}</style><linearGradient id="linear-gradient" y1="86.39" x2="172.78" y2="86.39" gradientUnits="userSpaceOnUse"><stop offset="0" stop-color="#6cb96c"/><stop offset="1" stop-color="#10998e"/></linearGradient></defs><title>Asset 6_icon</title><g id="Layer_2" data-name="Layer 2"><g id="Layer_1-2" data-name="Layer 1"><path class="cls-1" d="M64.84,0H75.12c15.7,5.79,16.64,18.9,15.24,32.9h31.2c11.94,0,18.3,6.38,18.32,18.31,0,10.21,0,20.41,0,31,4.81,0,9.06-.14,13.29,0,10.2.39,15.86,6.71,19.61,15.39V108c-5.81,15.68-18.92,16.64-32.9,15.25,0,11.76.07,22.54,0,33.32-.08,8.75-6.82,15.93-15.31,16.13s-17.12.15-25.68,0c-5.19-.08-8.08-3.17-8.3-8.41-.07-1.54,0-3.09-.08-4.62-1.08-14-14.15-23-27-18.63-8.43,2.85-13.85,11.24-14.1,21.8-.17,7.22-2.8,9.86-9.95,9.89-7.88,0-15.76.11-23.63,0-8.37-.15-15.5-7-15.7-15.23-.2-8.55-.14-17.12,0-25.68.08-5.22,3.12-8.14,8.33-8.37,1.54-.07,3.09,0,4.62-.08,15.29-1.14,24.56-16.76,17.44-29.69-4.48-8.14-12-11.29-21-11.4C3,82.14.14,79.32.09,72.87,0,65.5.06,58.14.08,50.78c0-11.35,6.46-17.85,17.73-17.87,10.39,0,20.78,0,31.62,0,0-4.78-.14-9,0-13.26C49.84,9.43,56.13,3.74,64.84,0Z"/></g></g></svg>