<?xml version="1.0" encoding="UTF-8"?>
<svg xmlns="http://www.w3.org/2000/svg" xmlns:xlink="http://www.w3.org/1999/xlink" width="90" height="90" viewBox="0 0 90 90" version="1.1">
<defs>
<linearGradient id="linear0" gradientUnits="userSpaceOnUse" x1="0" y1="86.389999" x2="172.779999" y2="86.389999" gradientTransform="matrix(0.520894,0,0,0.520863,0,0)">
<stop offset="0" style="stop-color:rgb(42.352942%,72.549021%,42.352942%);stop-opacity:1;"/>
<stop offset="1" style="stop-color:rgb(6.27451%,60.000002%,55.686277%);stop-opacity:1;"/>
</linearGradient>
</defs>
<g id="surface1">
<path style=" stroke:none;fill-rule:nonzero;fill:url(#linear0);" d="M 33.773438 0 L 39.128906 0 C 47.308594 3.015625 47.796875 9.84375 47.066406 17.136719 L 63.320312 17.136719 C 69.539062 17.136719 72.851562 20.460938 72.863281 26.671875 C 72.863281 31.992188 72.863281 37.304688 72.863281 42.820312 C 75.367188 42.820312 77.582031 42.746094 79.785156 42.820312 C 85.097656 43.023438 88.046875 46.316406 90 50.835938 L 90 56.253906 C 86.972656 64.421875 80.144531 64.921875 72.863281 64.195312 C 72.863281 70.320312 72.898438 75.9375 72.863281 81.550781 C 72.820312 86.109375 69.308594 89.847656 64.886719 89.953125 C 60.464844 90.058594 55.96875 90.03125 51.511719 89.953125 C 48.808594 89.910156 47.300781 88.300781 47.1875 85.574219 C 47.152344 84.769531 47.1875 83.964844 47.144531 83.167969 C 46.582031 75.875 39.777344 71.1875 33.082031 73.460938 C 28.691406 74.945312 25.867188 79.316406 25.738281 84.816406 C 25.648438 88.578125 24.277344 89.953125 20.554688 89.96875 C 16.449219 89.96875 12.34375 90.027344 8.246094 89.96875 C 3.886719 89.890625 0.171875 86.324219 0.0664062 82.035156 C -0.0351562 77.582031 -0.00390625 73.117188 0.0664062 68.660156 C 0.109375 65.941406 1.691406 64.421875 4.40625 64.300781 C 5.207031 64.265625 6.015625 64.300781 6.8125 64.257812 C 14.777344 63.664062 19.605469 55.527344 15.898438 48.792969 C 13.5625 44.554688 9.648438 42.914062 4.957031 42.855469 C 1.5625 42.785156 0.0742188 41.316406 0.046875 37.957031 C 0 34.117188 0.03125 30.28125 0.0429688 26.449219 C 0.0429688 20.539062 3.40625 17.152344 9.277344 17.140625 C 14.6875 17.140625 20.101562 17.140625 25.746094 17.140625 C 25.746094 14.652344 25.675781 12.453125 25.746094 10.234375 C 25.960938 4.910156 29.238281 1.949219 33.773438 0 Z M 33.773438 0 "/>
</g>
</svg>
