<svg xmlns="http://www.w3.org/2000/svg" xmlns:xlink="http://www.w3.org/1999/xlink" viewBox="0 0 172.86 172.79"><defs><style>.cls-1{fill:url(#linear-gradient);}</style><linearGradient id="linear-gradient" y1="86.39" x2="172.86" y2="86.39" gradientUnits="userSpaceOnUse"><stop offset="0" stop-color="#6cb96c"/><stop offset="1" stop-color="#10998e"/></linearGradient></defs><title>Asset 8_icon</title><g id="Layer_2" data-name="Layer 2"><g id="Layer_1-2" data-name="Layer 1"><path class="cls-1" d="M172.86,150.19v16.07c-1.63,3.78-4.08,6.52-8.56,6.52q-77.85,0-155.68,0a8.41,8.41,0,0,1-8.53-8.61q-.06-5.78,0-11.55a8.35,8.35,0,0,1,7.79-8.56c2.08-.2,4.2,0,6.27-.19a7,7,0,0,0,3.58-1.27c5.46-4.57,10.77-9.3,16.17-13.92a2.71,2.71,0,0,0,1-3.2C32,114.24,29.26,103,26.45,91.73,25,86.08,23.62,80.44,22.22,74.85c-5.24-.26-7.9-2.15-9-6.3-.89-3.48-1.88-6.94-2.46-10.47a11.86,11.86,0,0,1,.5-5.58A3.17,3.17,0,0,0,11,49.35C7.8,44.18,4.56,39,1.43,33.77c-2.7-4.51-1.5-9.35,2.92-12.19,3-1.89,6-3.7,9-5.51,5.13-3.1,9.91-2,13.1,3.12Q30.75,26.11,35,33.06c1,1.59,1.77,3,4.15,2.8,1.32-.09,2.9.83,4,1.72,3.1,2.41,6,5,9,7.61,1.8,1.56,3.33,3.8,2.48,5.93-1.52,3.83,1.09,5.16,3.2,7,2.41,2.08,4.81,4.17,7.22,6.23a15.15,15.15,0,0,0,1.5,1c.63-3.3,1.3-6.31,1.7-9.35A3,3,0,0,0,67,53.78c-3.07-2.11-4.32-5.11-3.23-8.7,1.14-3.75,2.25-7.52,3.68-11.16.61-1.54,2.07-2.72,3.07-4.12a5.52,5.52,0,0,0,1.36-2.54c.13-5.35.26-10.72,0-16.07S73.48,2.11,78.43,0H94.51c4.95,2.11,6.78,5.92,6.53,11.2s-.13,10.55,0,15.82a6,6,0,0,0,1.37,2.78c1,1.49,2.49,2.75,3.14,4.36,1.4,3.48,2.44,7.1,3.54,10.69,1.2,3.91.05,6.73-3.41,9-.51.35-1.16,1.12-1.09,1.6.48,3.26,1.14,6.5,1.81,10.15,4.2-3.64,8.07-6.95,11.85-10.36a2.22,2.22,0,0,0,.26-1.9A7.38,7.38,0,0,1,120.94,45c2.84-2.47,5.63-5,8.65-7.27,1.4-1,3.33-1.32,5-2.06a6,6,0,0,0,2.66-1.62c3.24-5,6.28-10.07,9.44-15.1,3-4.81,7.83-5.94,12.76-3,2.23,1.32,4.36,2.81,6.64,4a14.69,14.69,0,0,1,6.8,6.64v5L160.92,51c1.89,2.65,1.81,5.45,1,8.4-.75,2.56-1.26,5.19-1.91,7.77-1.41,5.66-3.29,7.24-9.12,7.72a5.52,5.52,0,0,0-.38.9C146.27,92.52,142.07,109.25,138,126a3.37,3.37,0,0,0,1.15,2.61c4.6,4.13,9.43,8,13.94,12.25,2.42,2.28,4.89,3.48,8.25,3.07C166.57,143.31,170.6,145.17,172.86,150.19ZM86.46,166.9h39.16q18.7,0,37.4,0c3.37,0,3.93-.59,3.95-4,0-2.68,0-5.35,0-8,0-4.66-.47-5.13-5.18-5.13H11.17c-.59,0-1.17,0-1.76,0-2.5.13-3.4,1-3.43,3.59-.05,2.92,0,5.85,0,8.78,0,4.42.34,4.77,4.68,4.77Zm-28.1-23.16h56.21c-1.92-10.61-3.84-21-5.64-31.42a6.72,6.72,0,0,0-2.54-4.34c-2.85-2.32-5.57-4.8-8.35-7.21l-11.58-10C79.29,97,72.29,103.06,65.32,109.17a3.11,3.11,0,0,0-.95,1.65C62.35,121.71,60.38,132.61,58.36,143.74ZM40.37,123c6.22-5.41,12.15-10.55,18-15.74a3.66,3.66,0,0,0,1-2c1.91-10.41,3.81-20.83,5.6-31.26a3.45,3.45,0,0,0-.88-2.69c-4.4-4-9-7.8-13.38-11.75a2.15,2.15,0,0,0-3-.26q-9.24,5.79-18.57,11.4A2.11,2.11,0,0,0,28,73.57c2.9,11.3,5.68,22.63,8.51,34C37.73,112.57,39,117.62,40.37,123Zm92.07-.13c.22-.55.34-.78.4-1C136.92,105.62,141,89.38,145,73.12a2.76,2.76,0,0,0-1.14-2.27c-6.13-3.89-12.36-7.63-18.52-11.49a2.13,2.13,0,0,0-3,.23c-4.43,3.94-9,7.75-13.4,11.72A3.43,3.43,0,0,0,108,74c1.66,9.86,3.43,19.71,5.25,29.54.25,1.33.57,3,1.48,3.8C120.46,112.56,126.38,117.59,132.44,122.87ZM86.48,83c4.66-4.06,9.1-7.87,13.46-11.78a3.08,3.08,0,0,0,1-2.29c-.75-4.67-1.68-9.32-2.55-14H74.54c-.86,4.56-1.74,9-2.46,13.43a3.38,3.38,0,0,0,.7,2.62C77.23,75,81.8,78.88,86.48,83ZM38.43,41.54a10,10,0,0,0-1.07.48c-6.69,4.1-13.4,8.18-20,12.36a2.44,2.44,0,0,0-.83,2.06C17.24,60,18.17,63.57,19,67.13c.44,1.82,1.45,2,2.95,1.12q12.8-7.89,25.61-15.74c1.64-1,1.77-2.1.29-3.35C45.27,47,42.66,44.73,40,42.54A12.36,12.36,0,0,0,38.43,41.54ZM156.71,55.82a6.89,6.89,0,0,0-1.45-1.69c-6.37-4-12.75-8-19.22-11.77a3.4,3.4,0,0,0-3,.22c-2.74,2-5.29,4.35-7.91,6.55-1.44,1.2-1.51,2.32.18,3.35l25.82,15.84c1.27.78,2.3.63,2.7-.89C154.79,63.73,155.67,60,156.71,55.82Zm-70.21-7c4.94,0,9.88,0,14.82,0,1.93,0,2.68-.77,2.1-2.61-1.06-3.33-2.1-6.69-3.37-9.95a3.12,3.12,0,0,0-2.32-1.58c-7.53-.11-15.07-.12-22.6,0a3.1,3.1,0,0,0-2.27,1.64c-1.24,3.18-2.2,6.47-3.28,9.72-.65,2,0,2.8,2.11,2.77C76.63,48.78,81.57,48.82,86.5,48.82ZM31.58,38.66c-3.64-5.87-7.12-11.55-10.7-17.16-.95-1.49-2.46-1.64-4-.73-3.15,1.89-6.27,3.83-9.4,5.75C6,27.46,5.45,29,6.3,30.4c3.42,5.78,7,11.46,10.59,17.27Zm124.48,9C159.58,42,163,36.43,166.39,30.87c1-1.67.8-3.23-.93-4.32-3.11-2-6.25-3.87-9.39-5.76a2.75,2.75,0,0,0-4.14.88c-3.51,5.55-6.94,11.16-10.54,17ZM95,28.57c0-6.77,0-13.36,0-19.94a2.51,2.51,0,0,0-2.69-2.7c-3.93,0-7.87-.17-11.77.11A3.59,3.59,0,0,0,78,8.48c-.21,6.65-.12,13.31-.12,20.09Zm25.59,115.34a38.48,38.48,0,0,0,5.19-.07,2.83,2.83,0,0,0,1.89-1.61c1.09-3.67,2-7.4,2.88-11.13a2.79,2.79,0,0,0-.35-2.26c-4.7-4.23-9.5-8.36-14.71-12.89C117.28,125.62,118.93,134.69,120.61,143.91ZM57.38,116,44.29,127.36c-.51.44-1.2.8-1.45,1.36a4.38,4.38,0,0,0-.44,2.49c.57,2.77,1.33,5.5,2,8.24,1.16,4.55,1.17,4.45,5.81,4.52,1.76,0,2.29-.71,2.55-2.23C54.25,133.38,55.77,125,57.38,116Zm9-16.35.45.35L82,86.82,70.52,76.88Zm36.07-22.79L91,86.84l15.74,13.68C105.23,92.29,103.87,84.81,102.43,76.89Zm31.08,66.81h14L136,133.75ZM37,133.75l-11.45,10h13.9Z"/></g></g></svg>