<?xml version="1.0" encoding="UTF-8"?>
<svg xmlns="http://www.w3.org/2000/svg" xmlns:xlink="http://www.w3.org/1999/xlink" width="90" height="90" viewBox="0 0 90 90" version="1.1">
<defs>
<linearGradient id="linear0" gradientUnits="userSpaceOnUse" x1="0" y1="86.389999" x2="172.860001" y2="86.389999" gradientTransform="matrix(0.520653,0,0,0.520863,0,0)">
<stop offset="0" style="stop-color:rgb(42.352942%,72.549021%,42.352942%);stop-opacity:1;"/>
<stop offset="1" style="stop-color:rgb(6.27451%,60.000002%,55.686277%);stop-opacity:1;"/>
</linearGradient>
</defs>
<g id="surface1">
<path style=" stroke:none;fill-rule:nonzero;fill:url(#linear0);" d="M 90 78.226562 L 90 86.597656 C 89.152344 88.566406 87.875 89.996094 85.542969 89.996094 C 58.519531 89.996094 31.503906 89.996094 4.488281 89.996094 C 3.296875 90.011719 2.152344 89.542969 1.3125 88.699219 C 0.476562 87.851562 0.0195312 86.699219 0.046875 85.511719 C 0.0273438 83.503906 0.0273438 81.496094 0.046875 79.496094 C -0.015625 77.160156 1.773438 75.191406 4.101562 75.035156 C 5.1875 74.929688 6.289062 75.035156 7.367188 74.9375 C 8.039062 74.890625 8.683594 74.664062 9.230469 74.273438 C 12.074219 71.894531 14.839844 69.429688 17.648438 67.023438 C 18.1875 66.65625 18.402344 65.96875 18.171875 65.359375 C 16.660156 59.503906 15.234375 53.648438 13.769531 47.777344 C 13.015625 44.835938 12.296875 41.898438 11.570312 38.988281 C 8.839844 38.851562 7.457031 37.867188 6.882812 35.707031 C 6.417969 33.894531 5.902344 32.089844 5.601562 30.25 C 5.457031 29.277344 5.546875 28.28125 5.863281 27.34375 C 6.113281 26.8125 6.0625 26.1875 5.726562 25.703125 C 4.0625 23.011719 2.375 20.3125 0.746094 17.589844 C -0.660156 15.242188 -0.0351562 12.71875 2.265625 11.238281 C 3.828125 10.253906 5.390625 9.3125 6.949219 8.371094 C 9.621094 6.753906 12.109375 7.328125 13.769531 9.996094 C 15.265625 12.398438 16.746094 14.804688 18.222656 17.21875 C 18.742188 18.046875 19.144531 18.78125 20.382812 18.679688 C 21.070312 18.632812 21.894531 19.109375 22.464844 19.574219 C 24.082031 20.828125 25.589844 22.179688 27.152344 23.539062 C 28.089844 24.351562 28.886719 25.515625 28.441406 26.625 C 27.652344 28.621094 29.011719 29.3125 30.109375 30.273438 C 31.363281 31.355469 32.613281 32.445312 33.867188 33.515625 C 34.117188 33.707031 34.378906 33.878906 34.648438 34.039062 C 34.976562 32.320312 35.328125 30.75 35.535156 29.167969 C 35.5 28.707031 35.261719 28.28125 34.882812 28.011719 C 33.285156 26.914062 32.632812 25.351562 33.203125 23.480469 C 33.796875 21.527344 34.375 19.5625 35.117188 17.667969 C 35.4375 16.867188 36.195312 16.25 36.714844 15.523438 C 37.066406 15.152344 37.308594 14.695312 37.425781 14.199219 C 37.492188 11.414062 37.558594 8.613281 37.425781 5.828125 C 37.289062 3.042969 38.257812 1.097656 40.835938 0 L 49.207031 0 C 51.785156 1.097656 52.738281 3.082031 52.605469 5.832031 C 52.476562 8.582031 52.539062 11.328125 52.605469 14.074219 C 52.714844 14.609375 52.960938 15.109375 53.320312 15.523438 C 53.839844 16.296875 54.617188 16.953125 54.953125 17.792969 C 55.683594 19.605469 56.226562 21.492188 56.796875 23.359375 C 57.421875 25.398438 56.824219 26.867188 55.023438 28.046875 C 54.757812 28.230469 54.417969 28.632812 54.453125 28.882812 C 54.703125 30.578125 55.046875 32.265625 55.398438 34.167969 C 57.585938 32.273438 59.597656 30.546875 61.566406 28.773438 C 61.757812 28.480469 61.808594 28.117188 61.703125 27.78125 C 61.136719 26.214844 61.648438 24.457031 62.96875 23.4375 C 64.445312 22.152344 65.898438 20.835938 67.472656 19.652344 C 68.199219 19.132812 69.207031 18.964844 70.074219 18.578125 C 70.601562 18.425781 71.082031 18.132812 71.460938 17.734375 C 73.144531 15.132812 74.730469 12.492188 76.375 9.871094 C 77.9375 7.363281 80.453125 6.777344 83.019531 8.308594 C 84.179688 8.996094 85.289062 9.769531 86.476562 10.390625 C 88.003906 11.121094 89.25 12.335938 90.015625 13.851562 L 90.015625 16.453125 L 83.785156 26.5625 C 84.765625 27.945312 84.726562 29.402344 84.304688 30.9375 C 83.914062 32.273438 83.648438 33.640625 83.308594 34.988281 C 82.574219 37.933594 81.597656 38.757812 78.5625 39.007812 C 78.480469 39.15625 78.414062 39.3125 78.363281 39.476562 C 76.15625 48.191406 73.96875 56.90625 71.851562 65.628906 C 71.839844 66.148438 72.058594 66.644531 72.449219 66.988281 C 74.84375 69.140625 77.359375 71.15625 79.707031 73.367188 C 80.964844 74.554688 82.253906 75.179688 84.003906 74.96875 C 86.726562 74.644531 88.824219 75.613281 90 78.226562 Z M 45.015625 86.933594 L 65.40625 86.933594 C 71.894531 86.933594 78.386719 86.933594 84.875 86.933594 C 86.632812 86.933594 86.921875 86.625 86.933594 84.847656 C 86.933594 83.453125 86.933594 82.0625 86.933594 80.683594 C 86.933594 78.253906 86.6875 78.007812 84.238281 78.007812 L 5.816406 78.007812 C 5.507812 78.007812 5.207031 78.007812 4.898438 78.007812 C 3.597656 78.078125 3.128906 78.53125 3.113281 79.878906 C 3.085938 81.402344 3.113281 82.925781 3.113281 84.453125 C 3.113281 86.753906 3.289062 86.9375 5.550781 86.9375 Z M 30.386719 74.867188 L 59.652344 74.867188 C 58.652344 69.34375 57.652344 63.929688 56.714844 58.503906 C 56.582031 57.605469 56.109375 56.796875 55.390625 56.242188 C 53.910156 55.035156 52.492188 53.742188 51.042969 52.488281 L 45.015625 47.277344 C 41.28125 50.523438 37.636719 53.679688 34.007812 56.863281 C 33.757812 57.089844 33.585938 57.390625 33.515625 57.722656 C 32.460938 63.394531 31.4375 69.070312 30.386719 74.867188 Z M 21.019531 64.066406 C 24.257812 61.25 27.34375 58.570312 30.390625 55.867188 C 30.667969 55.582031 30.851562 55.21875 30.910156 54.824219 C 31.90625 49.402344 32.894531 43.976562 33.828125 38.542969 C 33.882812 38.03125 33.714844 37.523438 33.367188 37.144531 C 31.078125 35.058594 28.683594 33.078125 26.402344 31.023438 C 26.003906 30.558594 25.3125 30.5 24.839844 30.886719 C 21.632812 32.898438 18.410156 34.878906 15.171875 36.824219 C 14.886719 36.9375 14.664062 37.160156 14.550781 37.441406 C 14.4375 37.726562 14.449219 38.042969 14.578125 38.320312 C 16.089844 44.207031 17.535156 50.105469 19.007812 56.027344 C 19.644531 58.632812 20.304688 61.265625 21.019531 64.066406 Z M 68.957031 64 C 69.070312 63.710938 69.132812 63.59375 69.164062 63.476562 C 71.289062 55.011719 73.410156 46.554688 75.496094 38.085938 C 75.5 37.617188 75.277344 37.175781 74.902344 36.902344 C 71.710938 34.878906 68.464844 32.929688 65.257812 30.917969 C 64.792969 30.519531 64.09375 30.574219 63.695312 31.039062 C 61.390625 33.089844 59.011719 35.074219 56.71875 37.144531 C 56.363281 37.515625 56.183594 38.027344 56.230469 38.542969 C 57.09375 43.679688 58.015625 48.808594 58.964844 53.929688 C 59.09375 54.621094 59.261719 55.492188 59.734375 55.910156 C 62.71875 58.628906 65.800781 61.25 68.957031 64 Z M 45.027344 43.230469 C 47.453125 41.117188 49.765625 39.132812 52.035156 37.097656 C 52.367188 36.789062 52.558594 36.355469 52.554688 35.902344 C 52.164062 33.46875 51.679688 31.046875 51.226562 28.609375 L 38.808594 28.609375 C 38.363281 30.984375 37.902344 33.296875 37.527344 35.605469 C 37.453125 36.09375 37.585938 36.585938 37.894531 36.972656 C 40.210938 39.066406 42.589844 41.085938 45.027344 43.230469 Z M 20.007812 21.636719 C 19.816406 21.710938 19.632812 21.792969 19.453125 21.886719 C 15.96875 24.023438 12.476562 26.148438 9.039062 28.324219 C 8.730469 28.59375 8.570312 28.992188 8.605469 29.398438 C 8.976562 31.25 9.460938 33.109375 9.890625 34.964844 C 10.121094 35.914062 10.648438 36.007812 11.429688 35.550781 C 15.871094 32.808594 20.316406 30.078125 24.761719 27.351562 C 25.617188 26.828125 25.683594 26.257812 24.914062 25.605469 C 23.570312 24.480469 22.210938 23.296875 20.824219 22.15625 C 20.566406 21.964844 20.292969 21.789062 20.007812 21.636719 Z M 81.589844 29.074219 C 81.390625 28.742188 81.132812 28.445312 80.835938 28.195312 C 77.519531 26.109375 74.199219 24.027344 70.828125 22.0625 C 70.320312 21.855469 69.742188 21.898438 69.269531 22.179688 C 67.839844 23.21875 66.511719 24.445312 65.148438 25.589844 C 64.398438 26.214844 64.363281 26.796875 65.242188 27.335938 L 78.6875 35.585938 C 79.347656 35.992188 79.882812 35.914062 80.09375 35.121094 C 80.59375 33.195312 81.050781 31.25 81.589844 29.074219 Z M 45.035156 25.429688 C 47.609375 25.429688 50.179688 25.429688 52.753906 25.429688 C 53.757812 25.429688 54.148438 25.027344 53.847656 24.070312 C 53.292969 22.335938 52.753906 20.585938 52.089844 18.886719 C 51.839844 18.4375 51.394531 18.132812 50.882812 18.0625 C 46.960938 18.007812 43.039062 18 39.117188 18.0625 C 38.609375 18.144531 38.171875 18.460938 37.933594 18.917969 C 37.289062 20.574219 36.789062 22.289062 36.226562 23.980469 C 35.886719 25.023438 36.226562 25.4375 37.324219 25.421875 C 39.898438 25.40625 42.46875 25.429688 45.035156 25.429688 Z M 16.441406 20.136719 C 14.546875 17.078125 12.734375 14.121094 10.871094 11.199219 C 10.375 10.421875 9.589844 10.34375 8.789062 10.816406 C 7.148438 11.804688 5.523438 12.8125 3.894531 13.8125 C 3.125 14.304688 2.835938 15.105469 3.28125 15.835938 C 5.0625 18.84375 6.925781 21.804688 8.792969 24.828125 Z M 81.253906 24.824219 C 83.085938 21.875 84.867188 18.976562 86.632812 16.078125 C 87.152344 15.210938 87.046875 14.398438 86.148438 13.828125 C 84.527344 12.789062 82.894531 11.8125 81.257812 10.828125 C 80.925781 10.566406 80.488281 10.464844 80.074219 10.550781 C 79.65625 10.640625 79.300781 10.910156 79.101562 11.289062 C 77.273438 14.179688 75.488281 17.101562 73.613281 20.140625 Z M 49.460938 14.882812 C 49.460938 11.355469 49.460938 7.921875 49.460938 4.496094 C 49.492188 4.113281 49.355469 3.738281 49.085938 3.46875 C 48.816406 3.199219 48.441406 3.058594 48.0625 3.089844 C 46.015625 3.089844 43.964844 3 41.933594 3.144531 C 41.300781 3.308594 40.800781 3.792969 40.609375 4.417969 C 40.5 7.878906 40.546875 11.351562 40.546875 14.882812 Z M 62.785156 74.957031 C 63.6875 75.007812 64.589844 74.992188 65.488281 74.921875 C 65.925781 74.808594 66.289062 74.5 66.472656 74.082031 C 67.039062 72.171875 67.511719 70.226562 67.972656 68.285156 C 68.082031 67.886719 68.015625 67.457031 67.789062 67.109375 C 65.34375 64.90625 62.84375 62.753906 60.128906 60.394531 C 61.0625 65.429688 61.921875 70.15625 62.796875 74.957031 Z M 29.875 60.421875 L 23.058594 66.335938 C 22.792969 66.566406 22.433594 66.753906 22.304688 67.046875 C 22.101562 67.445312 22.023438 67.898438 22.074219 68.34375 C 22.371094 69.785156 22.769531 71.207031 23.117188 72.632812 C 23.722656 75.003906 23.726562 74.953125 26.140625 74.988281 C 27.058594 74.988281 27.335938 74.617188 27.46875 73.828125 C 28.246094 69.472656 29.035156 65.109375 29.875 60.421875 Z M 34.5625 51.902344 L 34.796875 52.085938 L 42.695312 45.222656 L 36.714844 40.042969 Z M 53.339844 40.035156 L 47.378906 45.230469 L 55.574219 52.355469 C 54.789062 48.070312 54.082031 44.175781 53.332031 40.050781 Z M 69.523438 74.832031 L 76.8125 74.832031 L 70.808594 69.664062 Z M 19.265625 69.664062 L 13.300781 74.875 L 20.539062 74.875 Z M 19.265625 69.664062 "/>
</g>
</svg>
