<?xml version="1.0" encoding="UTF-8"?>
<svg xmlns="http://www.w3.org/2000/svg" xmlns:xlink="http://www.w3.org/1999/xlink" width="90" height="90" viewBox="0 0 90 90" version="1.1">
<defs>
<linearGradient id="linear0" gradientUnits="userSpaceOnUse" x1="0" y1="86.260002" x2="76.089996" y2="86.260002" gradientTransform="matrix(0.564972,0,0,0.520863,0,0)">
<stop offset="0" style="stop-color:rgb(42.352942%,72.549021%,42.352942%);stop-opacity:1;"/>
<stop offset="1" style="stop-color:rgb(6.27451%,60.000002%,55.686277%);stop-opacity:1;"/>
</linearGradient>
<linearGradient id="linear1" gradientUnits="userSpaceOnUse" x1="82.830002" y1="86.389999" x2="159.300003" y2="86.389999" gradientTransform="matrix(0.564972,0,0,0.520863,0,0)">
<stop offset="0" style="stop-color:rgb(42.352942%,72.549021%,42.352942%);stop-opacity:1;"/>
<stop offset="1" style="stop-color:rgb(6.27451%,60.000002%,55.686277%);stop-opacity:1;"/>
</linearGradient>
</defs>
<g id="surface1">
<path style=" stroke:none;fill-rule:nonzero;fill:url(#linear0);" d="M 40.984375 0 C 41.628906 1.390625 42.835938 2.78125 42.84375 4.167969 C 42.953125 31.25 42.882812 58.335938 42.988281 85.421875 C 42.988281 88.371094 41.527344 89.589844 38.78125 89.746094 C 32.457031 90.136719 26.390625 89.8125 22.492188 84.050781 C 21.925781 83.21875 20.492188 82.753906 19.363281 82.417969 C 9.808594 79.53125 6.65625 74.796875 8.421875 65.859375 C 0.738281 60.359375 -1.527344 55.558594 1.128906 49.164062 C 1.96875 47.320312 3.496094 45.816406 5.433594 44.925781 C 12.484375 42.027344 19.585938 42.582031 26.605469 45.445312 C 27.78125 45.917969 29.378906 45.519531 30.78125 45.519531 C 29.886719 44.476562 29.226562 43.023438 28.066406 42.496094 C 19.761719 38.722656 11.238281 38.722656 2.785156 41.976562 C -3.390625 30.375 0.800781 14.964844 14.382812 11.203125 C 15.125 11 16.078125 10.644531 16.40625 10.097656 C 19.527344 4.421875 25.421875 2.238281 31.238281 0 Z M 31.148438 69.472656 C 30.933594 61.546875 26.210938 55.789062 19.363281 54.457031 C 18.339844 54.257812 17.136719 54.851562 16.015625 55.074219 C 16.65625 55.886719 17.148438 57.222656 17.964844 57.4375 C 24.390625 59.082031 26.949219 63.203125 27.417969 68.984375 C 27.492188 69.90625 28.628906 70.757812 29.269531 71.644531 Z M 21.882812 28.679688 C 28.25 28.734375 34.015625 25.140625 34.746094 21.085938 C 34.898438 20.246094 34.179688 19.28125 33.898438 18.375 C 33.046875 18.808594 31.636719 19.089844 31.429688 19.695312 C 30.117188 23.960938 26.582031 24.808594 22.492188 25.234375 C 21.527344 25.335938 20.683594 26.460938 19.78125 27.109375 Z M 21.882812 28.679688 "/>
<path style=" stroke:none;fill-rule:nonzero;fill:url(#linear1);" d="M 88.136719 48.441406 C 82.046875 50.238281 76.328125 52.160156 70.453125 53.507812 C 68.757812 53.898438 66.582031 52.648438 64.628906 52.148438 C 66.382812 51.511719 68.085938 50.554688 69.898438 50.300781 C 80.339844 48.855469 87.875 45.769531 89.546875 35.011719 C 91.179688 24.476562 86.378906 15.480469 76.746094 11.695312 C 75.570312 11.230469 73.886719 10.917969 73.40625 10.066406 C 70.210938 4.410156 64.367188 2.253906 58.527344 -0.0117188 L 48.78125 -0.0117188 C 48.128906 1.378906 46.976562 2.753906 46.921875 4.15625 C 46.707031 9.839844 46.835938 15.53125 46.835938 21.226562 C 46.835938 42.335938 46.769531 63.445312 46.953125 84.558594 C 46.953125 86.203125 48.300781 88.722656 49.746094 89.3125 C 55.085938 91.488281 63.230469 88.035156 65.9375 82.972656 C 58.453125 77.976562 55.050781 73.5625 54.871094 68.03125 C 54.835938 66.988281 55.964844 65.945312 56.566406 64.90625 C 57.273438 65.75 57.917969 66.636719 58.496094 67.5625 C 58.769531 68.082031 58.546875 68.753906 58.671875 69.335938 C 60.496094 78.109375 70.097656 82.828125 77.34375 78.539062 C 82.710938 75.363281 82.507812 70.726562 81.050781 65.972656 C 89.898438 59.898438 92.035156 53.714844 88.136719 48.441406 Z M 59.0625 25.339844 C 58.820312 24.296875 59.628906 23.03125 59.953125 21.871094 C 60.789062 22.699219 62.0625 23.402344 62.394531 24.382812 C 64.304688 29.914062 68.800781 31.808594 74.535156 32.40625 C 75.667969 32.527344 76.6875 33.621094 77.761719 34.269531 L 75.707031 35.832031 C 67.632812 36.050781 60.453125 31.335938 59.0625 25.339844 Z M 59.0625 25.339844 "/>
</g>
</svg>
