<svg xmlns="http://www.w3.org/2000/svg" xmlns:xlink="http://www.w3.org/1999/xlink" viewBox="0 0 159.3 172.79"><defs><style>.cls-1{fill:url(#linear-gradient);}.cls-2{fill:url(#linear-gradient-2);}</style><linearGradient id="linear-gradient" y1="86.26" x2="76.09" y2="86.26" gradientUnits="userSpaceOnUse"><stop offset="0" stop-color="#6cb96c"/><stop offset="1" stop-color="#10998e"/></linearGradient><linearGradient id="linear-gradient-2" x1="82.83" y1="86.39" x2="159.3" y2="86.39" xlink:href="#linear-gradient"/></defs><title>Asset 10_icon</title><g id="Layer_2" data-name="Layer 2"><g id="Layer_1-2" data-name="Layer 1"><path class="cls-1" d="M72.54,0c1.14,2.67,3.28,5.34,3.29,8,.2,52,.07,104,.26,156,0,5.66-2.59,8-7.45,8.3-11.19.75-21.93.13-28.83-10.93-1-1.6-3.54-2.49-5.54-3.14-16.91-5.54-22.49-14.63-19.36-31.79C1.31,115.88-2.7,106.67,2,94.39a16,16,0,0,1,7.62-8.14c12.48-5.56,25.05-4.5,37.47,1,2.08.91,4.91.14,7.39.14-1.58-2-2.75-4.79-4.8-5.8-14.7-7.25-29.79-7.25-44.75-1C-6,58.32,1.42,28.73,25.46,21.51c1.31-.39,3-1.07,3.58-2.12C34.56,8.49,45,4.3,55.29,0ZM55.13,133.38c-.38-15.22-8.74-26.27-20.86-28.83-1.81-.38-3.94.76-5.92,1.19,1.13,1.56,2,4.12,3.45,4.53,11.37,3.16,15.9,11.07,16.73,22.17.13,1.77,2.14,3.41,3.28,5.11ZM38.73,55.06C50,55.17,60.21,48.27,61.5,40.48c.27-1.61-1-3.46-1.5-5.2-1.51.83-4,1.37-4.37,2.53C53.31,46,47.05,47.63,39.81,48.45c-1.71.19-3.2,2.35-4.8,3.6Z"/><path class="cls-2" d="M156,93c-10.78,3.45-20.9,7.14-31.3,9.73-3,.75-6.85-1.65-10.31-2.61,3.11-1.22,6.12-3.06,9.33-3.55,18.48-2.77,31.82-8.7,34.78-29.35,2.89-20.23-5.61-37.5-22.66-44.77-2.08-.89-5.06-1.49-5.91-3.12-5.66-10.86-16-15-26.34-19.35H86.34c-1.15,2.67-3.19,5.31-3.29,8-.38,10.91-.15,21.84-.15,32.77,0,40.53-.12,81.06.21,121.59,0,3.16,2.38,8,4.94,9.13,9.45,4.18,23.87-2.45,28.66-12.17-13.25-9.59-19.27-18.07-19.59-28.69-.06-2,1.94-4,3-6a45.84,45.84,0,0,1,3.42,5.1c.48,1,.09,2.29.31,3.41,3.23,16.84,20.22,25.9,33.05,17.67,9.5-6.1,9.14-15,6.56-24.13C159.12,115,162.9,103.13,156,93ZM104.54,48.65c-.43-2,1-4.43,1.58-6.66,1.48,1.59,3.73,2.94,4.32,4.82,3.38,10.62,11.34,14.26,21.49,15.41,2,.23,3.81,2.33,5.71,3.57l-3.64,3C119.71,69.21,107,60.16,104.54,48.65Z"/></g></g></svg>