<svg xmlns="http://www.w3.org/2000/svg" xmlns:xlink="http://www.w3.org/1999/xlink" viewBox="0 0 172.79 72.61"><defs><style>.cls-1{fill:url(#linear-gradient);}.cls-2{fill:url(#linear-gradient-2);}.cls-3{fill:url(#linear-gradient-3);}.cls-4{fill:url(#linear-gradient-4);}</style><linearGradient id="linear-gradient" y1="36.3" x2="44.42" y2="36.3" gradientUnits="userSpaceOnUse"><stop offset="0" stop-color="#6cb96c"/><stop offset="1" stop-color="#10998e"/></linearGradient><linearGradient id="linear-gradient-2" x1="125.48" y1="36.28" x2="172.79" y2="36.28" xlink:href="#linear-gradient"/><linearGradient id="linear-gradient-3" x1="75.44" y1="36.21" x2="119.81" y2="36.21" xlink:href="#linear-gradient"/><linearGradient id="linear-gradient-4" x1="50.83" y1="36.27" x2="68.16" y2="36.27" xlink:href="#linear-gradient"/></defs><title>Asset 2_icon</title><g id="Layer_2" data-name="Layer 2"><g id="Layer_1-2" data-name="Layer 1"><path class="cls-1" d="M0,14c.19-.58.44-1.14.57-1.73A15.06,15.06,0,0,1,14.92.19C24.67-.18,34.44.1,44.42.1V14.62h-11c-3.67,0-7.35-.06-11,0-2.95.06-4.5,1.4-4.62,4.15-.15,3.29,0,6.6,0,10.19H37.33V43.44H17.86V72.61H0Z"/><path class="cls-2" d="M172.58,72.36h-17V48h-9.18V33.48h8.83c0-5.47,0-10.63,0-15.79a2.19,2.19,0,0,0-.29-1c-2-3.31-5.24-2.06-8-2.06-2.24,0-3.52,1.58-3.76,3.83a19.25,19.25,0,0,0,0,2.15v51.9c-5.57,0-10.92,0-16.27-.07-.45,0-1.15-.94-1.25-1.53a19.31,19.31,0,0,1-.07-3.49c0-16.76,0-33.52,0-50.28,0-8.3,4-14.19,11-16.23a20.72,20.72,0,0,1,5.81-.79c6,0,12-.18,18,.52a14.32,14.32,0,0,1,12.33,14.17c.15,18.73.09,37.46.1,56.19A10.55,10.55,0,0,1,172.58,72.36Z"/><path class="cls-3" d="M119.81,14.62H99.46c-5.32,0-6.37,1.07-6.37,6.5V28.9h19.56V43.53H93.13V72.37H75.44v-3q0-25.82,0-51.65C75.46,6.41,81.82.06,93.1.05q11.84,0,23.67,0h3Z"/><path class="cls-4" d="M50.83.21H68.16V72.33H50.83Z"/></g></g></svg>