<?xml version="1.0" encoding="UTF-8"?>
<svg xmlns="http://www.w3.org/2000/svg" xmlns:xlink="http://www.w3.org/1999/xlink" width="90" height="90" viewBox="0 0 90 90" version="1.1">
<defs>
<linearGradient id="linear0" gradientUnits="userSpaceOnUse" x1="0" y1="83.879997" x2="172.419998" y2="83.879997" gradientTransform="matrix(0.521981,0,0,0.536449,0,0)">
<stop offset="0" style="stop-color:rgb(42.352942%,72.549021%,42.352942%);stop-opacity:1;"/>
<stop offset="1" style="stop-color:rgb(6.27451%,60.000002%,55.686277%);stop-opacity:1;"/>
</linearGradient>
<linearGradient id="linear1" gradientUnits="userSpaceOnUse" x1="23.27" y1="46.990002" x2="59.529999" y2="46.990002" gradientTransform="matrix(0.521981,0,0,0.536449,0,0)">
<stop offset="0" style="stop-color:rgb(42.352942%,72.549021%,42.352942%);stop-opacity:1;"/>
<stop offset="1" style="stop-color:rgb(6.27451%,60.000002%,55.686277%);stop-opacity:1;"/>
</linearGradient>
</defs>
<g id="surface1">
<path style=" stroke:none;fill-rule:nonzero;fill:url(#linear0);" d="M 37.0625 68.613281 C 37.445312 73.617188 37.9375 78.628906 38.1875 83.632812 C 38.515625 90.246094 33.898438 89.800781 29.542969 89.96875 C 25.054688 90.132812 20.566406 89.257812 21.664062 83.703125 C 24.390625 69.828125 19.65625 61.207031 8.511719 52.503906 C -4.015625 42.71875 -1.984375 20.851562 9.914062 8.511719 C 21.394531 -3.378906 36.597656 -2.753906 49.683594 9.941406 C 51.402344 11.476562 53.453125 12.566406 55.664062 13.121094 C 74.488281 18.289062 83.359375 35.40625 77.640625 54.464844 C 76.59375 57.878906 78.109375 62.585938 79.632812 66.160156 C 80.875 69.078125 83.933594 71.160156 86.132812 73.671875 C 91.726562 80.054688 91.351562 82.042969 84.429688 87.265625 C 80.53125 90.214844 77.644531 89.828125 75.070312 85.75 C 74.304688 84.542969 73.308594 83.460938 72.703125 82.171875 C 68.40625 73.085938 61.949219 69.296875 51.769531 71.019531 C 47.265625 71.789062 42.28125 69.5625 37.0625 68.613281 Z M 29.140625 51.101562 C 32.902344 51.101562 36.730469 50.621094 40.402344 51.203125 C 47.886719 52.394531 51.152344 48.050781 53.054688 41.789062 C 53.8125 39.257812 54.285156 36.648438 54.464844 34.003906 C 55.296875 22.203125 48.722656 10.320312 38.832031 5.449219 C 29.9375 1.074219 20.382812 2.601562 12.910156 10.046875 C 4.210938 18.710938 1.757812 29.371094 4.925781 41.214844 C 6.65625 47.664062 9.917969 52.570312 17.886719 51.210938 C 21.542969 50.578125 25.390625 51.101562 29.140625 51.101562 Z M 37.722656 62.507812 C 44.761719 68.703125 49.484375 69.683594 53.804688 65.984375 C 60.464844 60.257812 67.089844 54.476562 73.484375 48.4375 C 75.101562 46.835938 76.125 44.707031 76.375 42.417969 C 77.089844 30.578125 66.15625 18.207031 54.285156 17.167969 C 62.777344 37.550781 55.492188 52.125 37.722656 62.507812 Z M 37.722656 62.507812 "/>
<path style=" stroke:none;fill-rule:nonzero;fill:url(#linear1);" d="M 31.074219 25.105469 C 31.074219 30.207031 26.683594 34.761719 21.679688 34.792969 C 16.503906 34.773438 12.28125 30.527344 12.148438 25.214844 C 12.113281 19.839844 16.324219 15.460938 21.550781 15.425781 C 26.777344 15.390625 31.039062 19.71875 31.074219 25.089844 Z M 31.074219 25.105469 "/>
</g>
</svg>
