<svg xmlns="http://www.w3.org/2000/svg" xmlns:xlink="http://www.w3.org/1999/xlink" viewBox="0 0 171.44 171.49"><defs><style>.cls-1{fill:url(#linear-gradient);}.cls-2{fill:url(#linear-gradient-2);}.cls-3{fill:url(#linear-gradient-3);}.cls-4{fill:url(#linear-gradient-4);}.cls-5{fill:url(#linear-gradient-5);}.cls-6{fill:url(#linear-gradient-6);}.cls-7{fill:url(#linear-gradient-7);}.cls-8{fill:url(#linear-gradient-8);}.cls-9{fill:url(#linear-gradient-9);}.cls-10{fill:url(#linear-gradient-10);}.cls-11{fill:url(#linear-gradient-11);}.cls-12{fill:url(#linear-gradient-12);}.cls-13{fill:url(#linear-gradient-13);}.cls-14{fill:url(#linear-gradient-14);}.cls-15{fill:url(#linear-gradient-15);}.cls-16{fill:url(#linear-gradient-16);}.cls-17{fill:url(#linear-gradient-17);}.cls-18{fill:url(#linear-gradient-18);}.cls-19{fill:url(#linear-gradient-19);}.cls-20{fill:url(#linear-gradient-20);}.cls-21{fill:url(#linear-gradient-21);}.cls-22{fill:url(#linear-gradient-22);}</style><linearGradient id="linear-gradient" y1="114.41" x2="171.44" y2="114.41" gradientUnits="userSpaceOnUse"><stop offset="0" stop-color="#6cb96c"/><stop offset="1" stop-color="#10998e"/></linearGradient><linearGradient id="linear-gradient-2" x1="53.58" y1="32.33" x2="117.87" y2="32.33" xlink:href="#linear-gradient"/><linearGradient id="linear-gradient-3" x1="46.47" y1="3.81" x2="53.73" y2="3.81" xlink:href="#linear-gradient"/><linearGradient id="linear-gradient-4" x1="117.71" y1="3.81" x2="124.98" y2="3.81" xlink:href="#linear-gradient"/><linearGradient id="linear-gradient-5" x1="32.26" y1="4.58" x2="39.37" y2="4.58" xlink:href="#linear-gradient"/><linearGradient id="linear-gradient-6" x1="132.09" y1="3.71" x2="139.24" y2="3.71" xlink:href="#linear-gradient"/><linearGradient id="linear-gradient-7" x1="14.38" y1="32.35" x2="22.12" y2="32.35" xlink:href="#linear-gradient"/><linearGradient id="linear-gradient-8" x1="28.66" y1="32.31" x2="35.82" y2="32.31" xlink:href="#linear-gradient"/><linearGradient id="linear-gradient-9" x1="121.44" y1="32.33" x2="128.54" y2="32.33" xlink:href="#linear-gradient"/><linearGradient id="linear-gradient-10" x1="135.72" y1="32.61" x2="142.77" y2="32.61" xlink:href="#linear-gradient"/><linearGradient id="linear-gradient-11" x1="149.97" y1="32.36" x2="157.07" y2="32.36" xlink:href="#linear-gradient"/><linearGradient id="linear-gradient-12" x1="39.44" y1="18.11" x2="46.49" y2="18.11" xlink:href="#linear-gradient"/><linearGradient id="linear-gradient-13" x1="124.97" y1="18.08" x2="132.57" y2="18.08" xlink:href="#linear-gradient"/><linearGradient id="linear-gradient-14" x1="39.44" y1="46.58" x2="46.51" y2="46.58" xlink:href="#linear-gradient"/><linearGradient id="linear-gradient-15" x1="42.97" y1="32.32" x2="50.09" y2="32.32" xlink:href="#linear-gradient"/><linearGradient id="linear-gradient-16" x1="12.29" y1="118.9" x2="19.51" y2="118.9" xlink:href="#linear-gradient"/><linearGradient id="linear-gradient-17" x1="124.96" y1="46.59" x2="132.08" y2="46.59" xlink:href="#linear-gradient"/><linearGradient id="linear-gradient-18" x1="25.17" y1="46.62" x2="32.2" y2="46.62" xlink:href="#linear-gradient"/><linearGradient id="linear-gradient-19" x1="139.32" y1="46.54" x2="146.28" y2="46.54" xlink:href="#linear-gradient"/><linearGradient id="linear-gradient-20" x1="25.19" y1="18.36" x2="32.16" y2="18.36" xlink:href="#linear-gradient"/><linearGradient id="linear-gradient-21" x1="139.26" y1="18.06" x2="146.41" y2="18.06" xlink:href="#linear-gradient"/><linearGradient id="linear-gradient-22" x1="74.85" y1="32.44" x2="96.61" y2="32.44" xlink:href="#linear-gradient"/></defs><title>Asset 1_icon</title><g id="Layer_2" data-name="Layer 2"><g id="Layer_1-2" data-name="Layer 1"><path class="cls-1" d="M28.35,96.18C30.66,86,32.7,83.35,41.05,79.33c-3-9.17-1.45-16.14,4.56-20.14a11.45,11.45,0,0,1,14,1.11c5.29,4.7,6.17,12.09,2.27,20.27a18.84,18.84,0,0,1,9.81,15.68H99.73c.68-6.73,3.67-12.17,9.78-15.53-3.73-9.89-2.61-16.83,3.36-21.2a11.43,11.43,0,0,1,13.5,0c5.64,4.16,7.14,11.43,4.2,19.1,3,2.45,6.33,4.41,8.51,7.27s3.09,6.55,4.79,10.41c3.75-.09,6,2.79,7.84,6.56,6,12.24,12.28,24.36,18.32,36.59a13.59,13.59,0,0,1,1.32,5.57c.15,7.39.06,14.8.05,22.2,0,2.39-1.11,4-3.55,4.21-2.16.23-3.66-1.58-3.76-4.28,0-.82,0-1.64,0-2.46v-3.61h-6.9c0,2,0,4,0,6,0,2.49-1.14,4.36-3.77,4.31s-3.52-1.89-3.57-4.43c-.08-4.71.07-9.49-.68-14.1-1-5.86-5.6-9.77-10.68-9.76a7.7,7.7,0,0,0-3.71,1c-5.39,3.09-10.65,3.06-16.08,0a5.13,5.13,0,0,0-3.88-.27c-5.18,2.1-7.22,6.44-7.49,11.71-.19,3.69,0,7.4-.08,11.1,0,3-1.44,4.74-3.67,4.75s-3.59-1.71-3.64-4.73c0-1.64,0-3.29-.05-4.93a4,4,0,0,0-.27-.77H71.53c0,2-.06,3.79,0,5.61.1,2.59-.73,4.53-3.56,4.79-2.32.22-3.74-1.75-3.77-4.94,0-3.49.11-7-.06-10.48-.22-4.76-2.09-8.75-6.18-11.45-1.87-1.23-3.58-1.7-5.88-.22-4.57,2.95-9.54,2.84-14.35.32-5.51-2.88-11.47-1.26-14.17,4.38a24,24,0,0,0-1.91,8,90.76,90.76,0,0,0-.06,10.17c0,2.44-1,4.13-3.47,4.22-2.62.08-3.78-1.73-3.84-4.23,0-1.94,0-3.88,0-6.08H7.38c0,1.94,0,3.95,0,6,0,2.53-1.06,4.36-3.68,4.33S0,169.54.05,167c0-7.81-.18-15.63.12-23.43.08-2.21,1.48-4.4,2.43-6.52s2.15-4.43,3.32-6.6,2.77-3.17,5.06-2,2.45,3.09,1.41,5.24c-.8,1.66-1.62,3.31-2.62,5.34,7,.55,13.62,1,19.8-3.64-2.34-9.46-.78-18.19,9.15-23.29,5.66-2.9,11.36-1.72,16,2.56,6.65,6.14,7.51,13.73,4.22,22.82,2.75.62,5.32,1.67,7.9,1.7q18.35.27,36.69,0c2.92-.05,5.82-1,9-1.64-3.35-9.55-2.38-17.48,5.1-23.59,4.91-4,10.67-4.62,16.12-1.37,9,5.37,10.48,13.76,8.1,22.87,6,4.56,12.65,4.08,19.61,3.61a18.74,18.74,0,0,0-.81-2.2c-5.2-10.35-10.46-20.67-15.59-31.06a3.35,3.35,0,0,0-3.51-2.15q-55.81.07-111.62,0c-1.79,0-2.88.46-3.49,2.18-.34,1-.79,2.18-1.55,2.58-1.22.65-3.12,1.36-4,.84a4.78,4.78,0,0,1-2.06-3.86C19.48,100.44,23.1,97.14,28.35,96.18Zm26,32.24c-1.39-2.75-2.33-5.62-4.09-7.83-2.53-3.18-6.7-3.4-10-1.16-5.86,4-5.83,14.34,0,18.37a7.44,7.44,0,0,0,10.4-1.61C52.31,134,53.07,131.31,54.38,128.42Zm82-.14c-1.45-2.78-2.44-5.63-4.23-7.83-2.48-3-6.53-3.22-9.73-1.09-5.89,3.93-6,14.29-.17,18.37a7.4,7.4,0,0,0,10.42-1.45C134.28,134.05,135.06,131.23,136.39,128.28ZM64,96.26c.1-4.67-2.75-9-7.36-9.73a41.38,41.38,0,0,0-12.47-.14c-5,.72-7.66,4.43-8.1,9.87Zm43.46-.1h28.06c-.85-5.88-3.74-9.36-9-10a39.09,39.09,0,0,0-10.42,0A9.84,9.84,0,0,0,107.43,96.16Zm-38,50.44a50.33,50.33,0,0,0,1.6,5.67,2.6,2.6,0,0,0,2,1.27q12.63.14,25.27,0a2.57,2.57,0,0,0,2-1.29,50.19,50.19,0,0,0,1.39-5.65ZM46.53,70.91a18.46,18.46,0,0,0,.54,3.48c.87,2.16,2.06,4.11,4.79,4.11a4.49,4.49,0,0,0,4.65-4.11,15.4,15.4,0,0,0-1.23-7.84c-1.33-2.74-5.16-2.61-6.92,0A19.85,19.85,0,0,0,46.53,70.91Zm78.22,1.29c0-4.52-2.14-7.47-5.06-7.54s-5.44,3.14-5.32,7.06a8,8,0,0,0,.47,2.72c.87,2.17,2.08,4.09,4.81,4.06,2.58,0,3.79-1.81,4.63-3.88A10.44,10.44,0,0,0,124.75,72.2Zm30.19,74.45,2.07,6.72h6.89v-6.72ZM7.54,153.43h7l1.65-6.77H7.54Z"/><path class="cls-2" d="M64.21,56.84c-1.13-.9-2.41-1.5-3-2.5-2.4-3.81-4.66-7.72-6.85-11.67-1.46-2.63-.72-4.14,2.13-6.05,1.54-1,4.41-1,4-3.9a6.86,6.86,0,0,0-1.82-3.37c-.81-.86-2.11-1.24-3.13-1.92a3.51,3.51,0,0,1-1.3-5.06c2.24-4,4.53-8,6.95-12,1.56-2.54,3.13-2.59,6.33-1,1.74.87,3.33,3.32,5.65,1.24a5.71,5.71,0,0,0,1.64-2.84c.3-1.27,0-2.67.15-4,.28-2.2,1.52-3.6,3.84-3.63C83.35.14,88,.1,92.6.21c2.89.06,3.89,1.66,4.09,5.34.1,1.76-1.11,4.15,1.54,5a6.42,6.42,0,0,0,3.53.08A14.53,14.53,0,0,0,105,8.92a3.54,3.54,0,0,1,5.28,1.37q3.62,5.91,7,12c1.46,2.65.15,4.32-2.16,5.8-1.63,1.05-4.6,1.16-4,4.21a6.34,6.34,0,0,0,1.75,3.07,18.9,18.9,0,0,0,3.14,1.91c1.94,1.25,2.5,3,1.39,5-2.28,4.13-4.61,8.24-7.1,12.24-1.62,2.61-3.81,2-6.18.8-1.73-.86-3.32-3.35-5.66-1.29a5.82,5.82,0,0,0-1.65,2.87c-.3,1.27,0,2.67-.15,4C96.33,63,95.22,64.41,93,64.45q-7.23.14-14.47,0c-2.34,0-3.49-1.55-3.69-3.77-.11-1.32,0-2.67-.06-4a3.27,3.27,0,0,0-4.89-2.86C68.11,54.77,66.33,55.72,64.21,56.84Zm25.41.23c-1.29-5.08,1.09-7.25,5-9.67,4.24-2.61,7.42-2.4,11,.51l3.7-6.39c-5.13-1.32-5.88-4.47-6-9.11-.14-4.9,1.3-7.78,5.92-9.39l-3.69-6.26c-3.73,3.22-6.78,3-10.94.58s-6.21-4.86-5.22-9.6H81.74c1.58,5.07-1,7.1-4.89,9.54-4.23,2.64-7.39,2.59-11.06-.47l-3.68,6.33c4.92,1.49,5.89,4.51,6,9.19.08,4.89-1.24,7.81-5.95,9.32,1.3,2.22,2.41,4.13,3.69,6.33,3.68-3.14,6.75-3.08,10.93-.62S83,52.17,82,57.07Z"/><path class="cls-3" d="M53.73,5c-.94.64-2.22,2.14-3.67,2.34-2.22.31-3.65-1.42-3.58-3.63A3.36,3.36,0,0,1,50.06.25C52.32.28,53.55,1.67,53.73,5Z"/><path class="cls-4" d="M117.71,4.93c.23-3.31,1.48-4.69,3.74-4.68A3.36,3.36,0,0,1,125,3.76c0,2.21-1.42,3.92-3.64,3.57C119.89,7.11,118.64,5.59,117.71,4.93Z"/><path class="cls-5" d="M35.72,8.91c-1.63-2.29-3.2-3.55-3.42-5C32,1.73,33.62.2,35.88.26S39.74,1.84,39.3,4C39,5.5,37.42,6.69,35.72,8.91Z"/><path class="cls-6" d="M134.75,0c3.13.53,4.61,1.75,4.49,4a3.35,3.35,0,0,1-3.63,3.4c-2.27-.06-3.87-1.53-3.45-3.74C132.44,2.22,134,1,134.75,0Z"/><path class="cls-7" d="M22.12,32.94c-1.29,1-2.45,2.48-3.89,2.83-2.28.55-3.75-1.11-3.84-3.29A3.22,3.22,0,0,1,18,28.86c1.45.18,2.73,1.73,4.08,2.66Z"/><path class="cls-8" d="M35.82,33.53c-.86.57-2.1,2-3.55,2.25-2.31.41-3.63-1.33-3.61-3.52a3.34,3.34,0,0,1,3.53-3.48C34.39,28.78,35.75,30.08,35.82,33.53Z"/><path class="cls-9" d="M128.54,32.46c-.29,2.15-1.42,3.54-3.78,3.41a3.22,3.22,0,0,1-3.32-3.56,3.23,3.23,0,0,1,3.4-3.53C127.05,28.72,128.36,30.11,128.54,32.46Z"/><path class="cls-10" d="M138.45,36.43c-.92-1.31-2.36-2.53-2.65-4-.47-2.3,1.25-3.67,3.43-3.68s3.84,1.58,3.49,3.73c-.23,1.42-1.83,2.62-2.81,3.92Z"/><path class="cls-11" d="M152.31,35.94c-.59-.86-2.05-2.1-2.29-3.55-.38-2.28,1.35-3.63,3.55-3.61a3.36,3.36,0,0,1,3.5,3.53C157.06,34.5,155.74,35.86,152.31,35.94Z"/><path class="cls-12" d="M42.8,21.73c-2.14-.35-3.46-1.51-3.36-3.86A3.27,3.27,0,0,1,43,14.5,3.33,3.33,0,0,1,46.49,18C46.51,20.27,45.17,21.53,42.8,21.73Z"/><path class="cls-13" d="M132.57,18.79c-1.29,1-2.48,2.48-3.91,2.77-2.25.44-3.66-1.22-3.69-3.44s1.5-3.86,3.65-3.54c1.42.21,2.63,1.8,3.94,2.78Z"/><path class="cls-14" d="M42.87,43c2.29.16,3.67,1.43,3.63,3.67A3.2,3.2,0,0,1,43,50.13a3.2,3.2,0,0,1-3.58-3.29C39.31,44.48,40.64,43.32,42.87,43Z"/><path class="cls-15" d="M50.09,33.44c-.83.59-2,2.05-3.47,2.34-2.28.44-3.61-1.19-3.65-3.44a3.28,3.28,0,0,1,3.4-3.56C48.56,28.73,50,30,50.09,33.44Z"/><path class="cls-16" d="M19.51,120c-1,.67-2.33,2.15-3.79,2.33-2.26.27-3.58-1.36-3.42-3.73s1.56-3.26,3.73-3.2S19.2,117,19.51,120Z"/><path class="cls-17" d="M132.08,47.78c-.86.58-2.09,2-3.54,2.25-2.28.4-3.6-1.26-3.58-3.49a3.25,3.25,0,0,1,3.48-3.46C130.71,43.08,132,44.36,132.08,47.78Z"/><path class="cls-18" d="M28.53,50.16a3.28,3.28,0,0,1-3.36-3.58,3.21,3.21,0,0,1,3.47-3.5,3.25,3.25,0,0,1,3.55,3.73C32.09,49,30.76,50.1,28.53,50.16Z"/><path class="cls-19" d="M141.63,43c3.15.25,4.57,1.24,4.65,3.48s-1,3.56-3.25,3.68-4-1.17-3.67-3.45C139.56,45.2,141,43.91,141.63,43Z"/><path class="cls-20" d="M28,22.21c-.94-1.31-2.43-2.51-2.72-4-.45-2.24,1.2-3.73,3.38-3.75s3.87,1.44,3.45,3.69c-.27,1.46-1.74,2.68-2.66,4Z"/><path class="cls-21" d="M146.41,19.15c-.9.65-2.12,2.16-3.55,2.4-2.23.38-3.57-1.21-3.59-3.5a3.26,3.26,0,0,1,3.4-3.55C144.88,14.45,146.18,15.84,146.41,19.15Z"/><path class="cls-22" d="M96.61,32.37a10.88,10.88,0,1,1-21.76-.16,10.88,10.88,0,0,1,21.76.16Zm-6.84.81.06-1.46c-1.34-.91-2.58-2.28-4-2.6-2.15-.47-3.5,1.13-3.56,3.19s1.37,3.7,3.4,3.43C87.09,35.54,88.39,34.08,89.77,33.18Z"/></g></g></svg>