<?xml version="1.0" encoding="UTF-8"?>
<svg xmlns="http://www.w3.org/2000/svg" xmlns:xlink="http://www.w3.org/1999/xlink" width="90" height="90" viewBox="0 0 90 90" version="1.1">
<defs>
<linearGradient id="linear0" gradientUnits="userSpaceOnUse" x1="0" y1="86.239998" x2="166.600006" y2="86.239998" gradientTransform="matrix(0.540216,0,0,0.5218,0,0)">
<stop offset="0" style="stop-color:rgb(42.352942%,72.549021%,42.352942%);stop-opacity:1;"/>
<stop offset="1" style="stop-color:rgb(6.27451%,60.000002%,55.686277%);stop-opacity:1;"/>
</linearGradient>
</defs>
<g id="surface1">
<path style=" stroke:none;fill-rule:nonzero;fill:url(#linear0);" d="M 59.378906 12.804688 L 30.253906 2.164062 C 30.253906 2.164062 0.746094 15.332031 0 15.691406 L 0 90 L 29.316406 79.898438 L 59.191406 90 L 89.984375 77.371094 L 89.984375 0 Z M 20.097656 60.941406 C 17.65625 60.941406 15.679688 59.03125 15.683594 56.675781 C 15.683594 54.320312 17.660156 52.414062 20.101562 52.414062 C 22.539062 52.417969 24.511719 54.328125 24.507812 56.683594 C 24.507812 57.8125 24.042969 58.898438 23.214844 59.695312 C 22.390625 60.496094 21.265625 60.941406 20.097656 60.941406 Z M 33.542969 68.515625 C 31.101562 68.519531 29.125 66.613281 29.125 64.257812 C 29.121094 61.898438 31.097656 59.992188 33.539062 59.992188 C 35.976562 59.992188 37.953125 61.902344 37.949219 64.257812 C 37.949219 66.609375 35.976562 68.515625 33.542969 68.515625 Z M 38.230469 41.484375 L 34.621094 44.96875 L 25.71875 36.371094 L 16.816406 44.96875 L 13.207031 41.484375 L 22.109375 32.875 L 13.207031 24.285156 L 16.816406 20.800781 L 25.71875 29.398438 L 34.621094 20.800781 L 38.230469 24.285156 L 29.328125 32.875 Z M 50.066406 72.171875 C 47.628906 72.171875 45.648438 70.265625 45.648438 67.910156 C 45.644531 65.554688 47.621094 63.644531 50.058594 63.644531 C 52.5 63.644531 54.476562 65.550781 54.476562 67.90625 C 54.476562 70.257812 52.503906 72.167969 50.066406 72.171875 Z M 60.78125 30.265625 C 60.78125 27.910156 62.757812 26 65.195312 26 C 67.632812 26.003906 69.609375 27.914062 69.605469 30.269531 C 69.605469 32.621094 67.625 34.53125 65.1875 34.527344 C 64.019531 34.527344 62.894531 34.078125 62.070312 33.277344 C 61.242188 32.480469 60.777344 31.394531 60.78125 30.265625 Z M 66.59375 72.289062 C 64.152344 72.292969 62.175781 70.386719 62.171875 68.03125 C 62.171875 65.675781 64.148438 63.765625 66.585938 63.765625 C 69.023438 63.761719 71 65.671875 71 68.027344 C 70.996094 70.378906 69.027344 72.28125 66.59375 72.285156 Z M 78.332031 35.601562 C 80.769531 35.597656 82.75 37.507812 82.75 39.863281 C 82.753906 42.21875 80.777344 44.128906 78.339844 44.128906 C 75.898438 44.128906 73.921875 42.21875 73.921875 39.867188 C 73.921875 37.511719 75.894531 35.605469 78.332031 35.601562 Z M 78.472656 59.277344 C 76.035156 59.277344 74.058594 57.367188 74.058594 55.011719 C 74.058594 52.660156 76.035156 50.75 78.472656 50.75 C 80.910156 50.75 82.886719 52.660156 82.886719 55.011719 C 82.886719 57.359375 80.921875 59.269531 78.492188 59.277344 Z M 78.472656 59.277344 "/>
</g>
</svg>
