<svg xmlns="http://www.w3.org/2000/svg" xmlns:xlink="http://www.w3.org/1999/xlink" viewBox="0 0 166.6 172.48"><defs><style>.cls-1{fill:url(#linear-gradient);}</style><linearGradient id="linear-gradient" y1="86.24" x2="166.6" y2="86.24" gradientUnits="userSpaceOnUse"><stop offset="0" stop-color="#6cb96c"/><stop offset="1" stop-color="#10998e"/></linearGradient></defs><title>Asset 12_icon</title><g id="Layer_2" data-name="Layer 2"><g id="Layer_1-2" data-name="Layer 1"><path class="cls-1" d="M109.92,24.54,56,4.15S1.38,29.38,0,30.07V172.48l54.27-19.36,55.3,19.36,57-24.2V0ZM37.2,116.79a8.17,8.17,0,1,1,8.17-8.16A8.16,8.16,0,0,1,37.2,116.79Zm24.89,14.52a8.17,8.17,0,1,1,8.16-8.16A8.16,8.16,0,0,1,62.09,131.31ZM70.77,79.5l-6.68,6.68L47.61,69.7,31.13,86.18,24.45,79.5,40.93,63,24.45,46.54l6.68-6.68L47.61,56.34,64.09,39.86l6.68,6.68L54.29,63Zm21.91,58.81a8.17,8.17,0,1,1,8.16-8.17A8.17,8.17,0,0,1,92.68,138.31ZM112.51,58a8.17,8.17,0,1,1,8.16,8.17A8.16,8.16,0,0,1,112.51,58Zm10.76,80.54a8.17,8.17,0,1,1,8.16-8.17A8.17,8.17,0,0,1,123.27,138.53ZM145,68.23a8.17,8.17,0,1,1-8.16,8.17A8.17,8.17,0,0,1,145,68.23Zm.26,45.37a8.17,8.17,0,1,1,8.17-8.17A8.16,8.16,0,0,1,145.3,113.6Z"/></g></g></svg>