<svg xmlns="http://www.w3.org/2000/svg" xmlns:xlink="http://www.w3.org/1999/xlink" viewBox="0 0 172.84 171.6"><defs><style>.cls-1{fill:url(#linear-gradient);}.cls-2{fill:url(#linear-gradient-2);}.cls-3{fill:url(#linear-gradient-3);}</style><linearGradient id="linear-gradient" x1="45.37" y1="157.09" x2="127.55" y2="157.09" gradientUnits="userSpaceOnUse"><stop offset="0" stop-color="#6cb96c"/><stop offset="1" stop-color="#10998e"/></linearGradient><linearGradient id="linear-gradient-2" x1="33.94" y1="7.52" x2="138.49" y2="7.52" xlink:href="#linear-gradient"/><linearGradient id="linear-gradient-3" x1="0" y1="77.04" x2="172.84" y2="77.04" xlink:href="#linear-gradient"/></defs><title>Asset 4_icon</title><g id="Layer_2" data-name="Layer 2"><g id="Layer_1-2" data-name="Layer 1"><path class="cls-1" d="M45.37,171.6c2.45-12.13,3.66-12.83,25.45-14.75.24-4.42.47-8.95.74-14.07,4.89,1.15,9.54,3.12,14.18,3.09,4.8,0,9.58-2,15.05-3.28l.8,14.61c11,.38,23-1.51,26,14.4Z"/><path class="cls-2" d="M85.29,15C71.9,15,58.51,15,45.12,15c-5.65,0-11.31-.27-11.17-7.72C34.07.64,39.2,0,44.63,0q41.58.14,83.14,0c5.43,0,10.61.56,10.72,7.27.11,7.35-5.44,7.82-11.16,7.78C113.32,14.94,99.3,15,85.29,15Z"/><path class="cls-3" d="M163.29,19.33c-7.84-5.77-17.17-5.6-26.28-.44a26,26,0,0,1-12,3.48c-25.57.31-51.15.36-76.72,0-4.61-.07-9.55-1.8-13.7-4-7.82-4.13-15.49-4.88-23.11-.51C3.61,22.39-1.37,29.61.34,38.73c1.38,7.39,4,15.33,8.42,21.2,8.07,10.6,18,19.78,27,29.68,3.44,3.77,6.48,7.9,8.39,10.26l-5.81,11,15.45-3.15c4.55,6.52,9.56,15.54,16.32,23,10.29,11.34,22,11.24,32.29-.19,6.57-7.3,11.47-16.12,16.27-23l14.75,4c-1.38-3.53-2.75-7.06-5-12.86,7.76-8.09,17.76-17.44,26.41-27.89a112.65,112.65,0,0,0,16.35-25.69C175.39,35.58,171.16,25.12,163.29,19.33ZM15.61,55.86c-2.94-3.43-4.91-7.92-6.47-12.23-3.42-9.51,1-18.05,10.05-20.48,8.19-2.2,16.32,3.42,18.07,13.07,3.09,17,5.81,34.11,9.1,53.66C35.07,77.48,25.07,66.9,15.61,55.86ZM93.1,85.75l-10,.61V58.21c-3.31-.39-5.9,0-7.42-1.07s-2.73-5.07-2.38-5.32c5.94-4.14,12.15-7.89,19.82-12.67Zm70.18-42.43A62,62,0,0,1,152.4,61.49c-8.27,9.11-17.69,17.19-25.72,24.83,2.7-16.1,5.41-33.47,8.62-50.75C137,26.46,145.11,21.12,153,23.08,162.07,25.35,167,34.08,163.28,43.32Z"/></g></g></svg>