<?xml version="1.0" encoding="UTF-8"?>
<svg xmlns="http://www.w3.org/2000/svg" xmlns:xlink="http://www.w3.org/1999/xlink" width="90" height="90" viewBox="0 0 90 90" version="1.1">
<defs>
<linearGradient id="linear0" gradientUnits="userSpaceOnUse" x1="0" y1="42.860001" x2="164.279999" y2="42.860001" gradientTransform="matrix(0.535842,0,0,0.52283,0,0)">
<stop offset="0" style="stop-color:rgb(42.352942%,72.549021%,42.352942%);stop-opacity:1;"/>
<stop offset="1" style="stop-color:rgb(6.27451%,60.000002%,55.686277%);stop-opacity:1;"/>
</linearGradient>
<linearGradient id="linear1" gradientUnits="userSpaceOnUse" x1="0" y1="131.110001" x2="167.960007" y2="131.110001" gradientTransform="matrix(0.535842,0,0,0.52283,0,0)">
<stop offset="0" style="stop-color:rgb(42.352942%,72.549021%,42.352942%);stop-opacity:1;"/>
<stop offset="1" style="stop-color:rgb(6.27451%,60.000002%,55.686277%);stop-opacity:1;"/>
</linearGradient>
</defs>
<g id="surface1">
<path style=" stroke:none;fill-rule:nonzero;fill:url(#linear0);" d="M 28.714844 11.179688 C 28.714844 9.210938 28.714844 7.414062 28.714844 5.613281 C 28.757812 2.484375 31.078125 0.0664062 34.292969 0.0429688 C 40.777344 -0.015625 47.261719 -0.015625 53.75 0.0429688 C 55.25 0.0429688 56.6875 0.632812 57.738281 1.679688 C 58.785156 2.730469 59.355469 4.144531 59.316406 5.609375 C 59.316406 7.414062 59.316406 9.210938 59.316406 11.179688 L 83.546875 11.179688 C 86.703125 11.179688 88.023438 12.453125 88.027344 15.535156 C 88.027344 24.117188 88.027344 32.703125 88.027344 41.292969 C 88.027344 43.722656 87.132812 44.644531 84.59375 44.800781 C 84.222656 44.800781 83.855469 44.800781 83.480469 44.800781 L 4.550781 44.800781 C 4.179688 44.800781 3.804688 44.800781 3.433594 44.800781 C 0.898438 44.644531 0 43.722656 0 41.304688 L 0 15.804688 C 0 12.355469 1.214844 11.179688 4.757812 11.179688 Z M 55.433594 11.125 C 55.433594 9.28125 55.433594 7.527344 55.433594 5.78125 C 55.433594 4.4375 54.769531 3.847656 53.355469 3.820312 C 52.203125 3.820312 51.042969 3.820312 49.886719 3.820312 C 44.839844 3.820312 39.796875 3.820312 34.753906 3.820312 C 33.640625 3.820312 32.722656 4.191406 32.652344 5.316406 C 32.527344 7.234375 32.617188 9.164062 32.617188 11.140625 Z M 47.785156 37.265625 C 47.734375 35.257812 46.03125 33.667969 43.972656 33.703125 C 41.914062 33.738281 40.269531 35.382812 40.285156 37.390625 C 40.304688 39.402344 41.976562 41.019531 44.035156 41.019531 C 45.046875 41.023438 46.015625 40.625 46.71875 39.917969 C 47.425781 39.210938 47.8125 38.257812 47.785156 37.273438 Z M 47.785156 37.265625 "/>
<path style=" stroke:none;fill-rule:nonzero;fill:url(#linear1);" d="M 82.617188 85.875 C 80.621094 85.609375 78.816406 85.46875 77.054688 85.105469 C 76.25 84.867188 75.378906 85.148438 74.878906 85.808594 C 73.667969 87.183594 72.453125 88.546875 71.164062 89.988281 C 69.355469 88.28125 68.003906 86.921875 66.546875 85.679688 C 66.035156 85.304688 65.40625 85.121094 64.765625 85.160156 C 62.847656 85.304688 60.941406 85.609375 58.953125 85.863281 C 58.59375 83.933594 58.199219 82.171875 57.96875 80.394531 C 57.914062 79.625 57.410156 78.953125 56.675781 78.671875 C 55.019531 77.871094 53.414062 76.992188 51.742188 76.117188 L 52.175781 74.664062 L 4.597656 74.664062 C 1.207031 74.664062 0.00390625 73.5 0.00390625 70.183594 C 0 63 0 55.8125 0 48.625 L 0 47.097656 C 1.972656 48.753906 4.132812 48.519531 6.242188 48.519531 C 31.636719 48.519531 57.027344 48.519531 82.414062 48.519531 C 84.320312 48.519531 86.199219 48.519531 88.023438 47.144531 L 88.023438 49.667969 C 88.023438 53.375 88.085938 57.082031 87.996094 60.789062 C 87.957031 62.265625 88.042969 63.492188 90 63.851562 C 89.402344 65.207031 88.730469 66.53125 87.984375 67.816406 C 86.972656 69.386719 87.011719 70.75 88.015625 72.292969 C 88.734375 73.527344 89.378906 74.796875 89.957031 76.097656 C 88.121094 77.054688 86.351562 77.929688 84.640625 78.894531 C 84.207031 79.167969 83.890625 79.585938 83.753906 80.070312 C 83.324219 81.933594 83 83.835938 82.617188 85.875 Z M 85.015625 74.515625 C 84.425781 73.328125 83.945312 72.214844 83.324219 71.15625 C 82.867188 70.464844 82.867188 69.578125 83.324219 68.886719 C 83.941406 67.84375 84.433594 66.71875 85.039062 65.511719 C 83.804688 64.867188 82.582031 64.320312 81.480469 63.609375 C 80.945312 63.25 80.546875 62.730469 80.347656 62.128906 C 79.992188 60.890625 79.8125 59.59375 79.589844 58.269531 C 78.945312 58.28125 78.304688 58.351562 77.675781 58.472656 C 75.53125 59.09375 73.726562 58.839844 72.386719 56.90625 C 71.996094 56.339844 71.519531 55.859375 71.027344 55.253906 C 70.277344 55.855469 69.578125 56.515625 68.9375 57.230469 C 67.792969 58.738281 66.347656 59.0625 64.585938 58.59375 C 64.097656 58.460938 63.578125 58.445312 63.078125 58.351562 C 62.300781 58.207031 61.878906 58.40625 61.792969 59.273438 C 61.707031 60.140625 61.363281 61.128906 61.3125 62.070312 C 61.296875 62.804688 60.8125 63.449219 60.105469 63.691406 C 58.921875 64.261719 57.769531 64.898438 56.585938 65.519531 C 56.992188 66.429688 57.441406 67.316406 57.941406 68.175781 C 58.726562 69.402344 58.820312 70.515625 57.96875 71.769531 C 57.449219 72.65625 56.992188 73.578125 56.605469 74.53125 C 57.246094 74.894531 57.902344 75.226562 58.578125 75.523438 C 60.519531 76.246094 61.53125 77.429688 61.644531 79.601562 C 61.753906 81.769531 61.980469 81.78125 64.324219 81.472656 C 64.824219 81.410156 65.328125 81.351562 65.828125 81.246094 C 66.59375 81 67.4375 81.253906 67.929688 81.878906 C 68.734375 82.863281 69.59375 83.804688 70.5 84.839844 C 71.777344 83.652344 72.765625 82.835938 73.625 81.90625 C 74.171875 81.285156 75.042969 81.035156 75.847656 81.261719 C 77.054688 81.488281 78.28125 81.601562 79.597656 81.785156 C 79.839844 80.425781 80.082031 79.234375 80.257812 78.039062 C 80.308594 77.269531 80.808594 76.597656 81.542969 76.3125 C 82.703125 75.808594 83.8125 75.144531 85.015625 74.515625 Z M 85.015625 74.515625 "/>
</g>
</svg>
