<?xml version="1.0" encoding="UTF-8"?>
<svg xmlns="http://www.w3.org/2000/svg" xmlns:xlink="http://www.w3.org/1999/xlink" width="90" height="90" viewBox="0 0 90 90" version="1.1">
<defs>
<linearGradient id="linear0" gradientUnits="userSpaceOnUse" x1="0" y1="86.389999" x2="157.380005" y2="86.389999" gradientTransform="matrix(0.571864,0,0,0.520863,0,0)">
<stop offset="0" style="stop-color:rgb(42.352942%,72.549021%,42.352942%);stop-opacity:1;"/>
<stop offset="1" style="stop-color:rgb(6.27451%,60.000002%,55.686277%);stop-opacity:1;"/>
</linearGradient>
<linearGradient id="linear1" gradientUnits="userSpaceOnUse" x1="45.470001" y1="116.559998" x2="137.940002" y2="116.559998" gradientTransform="matrix(0.571864,0,0,0.520863,0,0)">
<stop offset="0" style="stop-color:rgb(42.352942%,72.549021%,42.352942%);stop-opacity:1;"/>
<stop offset="1" style="stop-color:rgb(6.27451%,60.000002%,55.686277%);stop-opacity:1;"/>
</linearGradient>
<linearGradient id="linear2" gradientUnits="userSpaceOnUse" x1="84.059998" y1="53.139999" x2="137.639999" y2="53.139999" gradientTransform="matrix(0.571864,0,0,0.520863,0,0)">
<stop offset="0" style="stop-color:rgb(42.352942%,72.549021%,42.352942%);stop-opacity:1;"/>
<stop offset="1" style="stop-color:rgb(6.27451%,60.000002%,55.686277%);stop-opacity:1;"/>
</linearGradient>
</defs>
<g id="surface1">
<path style=" stroke:none;fill-rule:nonzero;fill:url(#linear0);" d="M 68.132812 8.285156 C 67.101562 7.246094 65.707031 6.453125 65.925781 4.734375 C 66.066406 3.589844 65.644531 2.46875 64.285156 2.21875 C 53.617188 0.296875 42.964844 -2.125 32.597656 3.410156 C 28.535156 5.574219 24.351562 7.527344 20.65625 10.183594 C 16.960938 12.839844 13.667969 16.417969 7.847656 15.105469 C 5.558594 14.585938 3.535156 17.390625 5.53125 18.179688 C 11.902344 20.699219 6.890625 22.976562 5.714844 24.914062 C 2.140625 30.78125 -0.0703125 36.851562 0 43.695312 C 0.148438 52.070312 1.277344 60.410156 3.375 68.566406 C 4.734375 74.308594 6.632812 79.933594 9.050781 85.378906 C 9.671875 86.734375 10.4375 88.171875 12.425781 87.660156 C 14.417969 87.152344 14.335938 85.644531 13.878906 84.160156 C 13.644531 83.378906 12.828125 82.660156 13.59375 81.808594 C 17.140625 84.316406 20.65625 86.855469 24.234375 89.324219 C 25.429688 90.144531 26.890625 90.363281 27.878906 89.121094 C 28.789062 87.96875 28.449219 86.730469 27.214844 85.824219 C 25.980469 84.917969 24.636719 84.1875 23.464844 83.25 C 15.144531 76.566406 7.492188 69.660156 6.210938 58.738281 C 4.890625 47.488281 3.128906 36.367188 10.785156 26.15625 C 15.582031 19.761719 17.855469 19.386719 24.601562 24.640625 C 13.574219 27.671875 11.347656 30.371094 11.574219 40.460938 C 11.574219 41.535156 11.6875 42.601562 11.761719 43.675781 C 12.226562 50.378906 16.824219 53.496094 24.03125 52.121094 C 32.253906 50.558594 35.238281 44.445312 38.605469 38.582031 C 40.441406 35.382812 39.996094 32.605469 38.035156 29.574219 C 33.933594 23.226562 27.59375 19.578125 20.375 16.824219 C 29.964844 7.535156 46.441406 2.15625 55.90625 6.488281 C 52.285156 6.003906 52.050781 10.425781 49.613281 7.996094 C 46.453125 4.832031 45.292969 6.84375 44.089844 8.980469 C 41.070312 14.355469 41.648438 20.210938 42.734375 25.773438 C 43.410156 29.210938 45.839844 28.179688 47.367188 25.671875 C 47.980469 19.140625 51.371094 14.039062 56.957031 10.046875 C 59.125 8.484375 60.835938 8.285156 62.917969 10.265625 C 66.8125 13.953125 70.835938 17.511719 73.160156 22.296875 C 76.417969 25.828125 78.132812 30.074219 79.804688 34.335938 C 83.261719 42.550781 84.761719 51.042969 85.09375 59.898438 C 85.429688 68.960938 82.164062 77.046875 78.625 85.171875 C 77.894531 86.855469 76.796875 88.75 79.359375 89.730469 C 81.644531 90.59375 82.433594 88.6875 83.070312 87.214844 C 85.597656 81.433594 88.691406 75.753906 89.421875 69.503906 C 92.132812 46.308594 85.332031 25.773438 68.132812 8.285156 Z M 33.738281 34.445312 C 34.796875 38.898438 30.878906 42.257812 27.730469 45.308594 C 25.46875 47.675781 21.785156 48.429688 18.625 47.179688 C 15.164062 45.902344 16.949219 42.910156 16.453125 40.066406 C 19.199219 40.378906 22.65625 41.792969 23.421875 38.085938 C 24.253906 34.066406 20.1875 34.632812 17.613281 33.785156 C 19.078125 29.882812 22.347656 29.6875 25.734375 29.945312 C 29.234375 30.210938 33.105469 31.710938 33.738281 34.445312 Z M 33.738281 34.445312 "/>
<path style=" stroke:none;fill-rule:nonzero;fill:url(#linear1);" d="M 75.410156 53.914062 C 69.40625 47.269531 61.441406 43.066406 52.507812 40.574219 C 45.382812 38.585938 38.488281 41.667969 35.605469 47.804688 C 34.144531 50.929688 33.003906 54.160156 33.046875 57.625 C 33.128906 63.132812 31.207031 68.113281 28.261719 72.835938 C 24.671875 78.566406 24.945312 79.230469 32.121094 80.9375 C 33.527344 81.214844 34.957031 81.390625 36.394531 81.457031 C 45.246094 81.574219 51.503906 77.878906 57.816406 74.257812 C 61.589844 72.097656 65.003906 69.34375 69.625 68.53125 C 79.25 66.851562 81.707031 60.875 75.410156 53.914062 Z M 56.488281 47.957031 C 56.96875 48.871094 55.796875 49.542969 54.773438 49.574219 C 51.664062 49.660156 49.785156 48.257812 49.054688 44.886719 C 52.457031 45.167969 55.167969 45.433594 56.488281 47.957031 Z M 43.460938 45.910156 C 43.734375 49.035156 45.972656 51.324219 43.160156 53.386719 C 42.316406 54.003906 41.339844 53.164062 40.8125 52.449219 C 38.886719 49.855469 41.035156 48.371094 43.460938 45.910156 Z M 43.410156 74.9375 C 42.617188 77.171875 40.21875 76.695312 37.234375 77.457031 C 38.109375 74.59375 39.46875 73.195312 41.894531 73.050781 C 42.351562 73.019531 43.542969 74.484375 43.382812 74.9375 Z M 67.738281 57.703125 C 64.265625 56.097656 61.296875 57.566406 59.730469 60.1875 C 58.078125 62.960938 56.589844 64.625 52.867188 63.472656 C 51.878906 63.351562 50.886719 63.695312 50.238281 64.390625 C 46.972656 69.65625 41.089844 68.332031 35.871094 69.378906 C 36.445312 67.695312 37.320312 66.253906 37.34375 64.769531 C 37.40625 60.347656 37.589844 57.898438 44.429688 57.347656 C 48.304688 57.03125 53.167969 54.035156 58.054688 53.660156 C 60.589844 53.460938 60.394531 48.707031 63.847656 50.839844 C 67.765625 53.261719 71.996094 55.582031 73.609375 61.425781 C 70.980469 59.75 69.464844 58.515625 67.707031 57.703125 Z M 67.738281 57.703125 "/>
<path style=" stroke:none;fill-rule:nonzero;fill:url(#linear2);" d="M 72.433594 22.652344 C 72.003906 21.863281 71.492188 21.113281 70.910156 20.40625 C 67.949219 17.023438 65.507812 12.359375 59.886719 13.015625 C 54.085938 13.6875 51.363281 18.230469 49.078125 22.664062 C 48.597656 23.59375 47.933594 24.527344 48.191406 25.667969 C 46.800781 34.964844 57.585938 41.929688 65.632812 42.363281 C 72.371094 42.714844 76.230469 40.835938 78.710938 35.675781 C 78.527344 30.570312 74.609375 26.953125 72.433594 22.652344 Z M 70.28125 37.335938 C 65.757812 37.855469 61.382812 37.855469 57.621094 34.789062 C 51.210938 29.542969 51.519531 26.195312 59.675781 21.214844 C 58.1875 29.136719 58.816406 29.324219 67.507812 28.507812 C 70.941406 28.183594 71.300781 32.308594 72.65625 34.589844 C 73.769531 36.460938 71.816406 37.148438 70.28125 37.335938 Z M 70.28125 37.335938 "/>
</g>
</svg>
