<svg width="62" height="55" viewBox="0 0 62 55" xmlns="http://www.w3.org/2000/svg"><g fill="none" fill-rule="evenodd"><path d="M2.471 1.259h51.317c.813 0 1.471.522 1.471 1.166v40.668c0 .645-.658 1.166-1.471 1.166H2.471c-.813 0-1.471-.521-1.471-1.166V2.425c0-.644.658-1.166 1.471-1.166z" stroke="#EF3054" stroke-width="2"/><path d="M59.93 53.336a.85.85 0 111.701.001.85.85 0 01-1.701-.001M46.621 53.336a.85.85 0 111.701.001.85.85 0 01-1.701-.001M33.312 53.336a.85.85 0 111.7 0 .85.85 0 01-1.7 0M20.003 53.336a.85.85 0 111.7 0 .85.85 0 01-1.7 0M6.694 53.336a.85.85 0 111.7 0 .85.85 0 01-1.7 0M59.93 41.443a.85.85 0 111.7 0 .85.85 0 01-1.7 0M46.621 41.443a.85.85 0 111.7 0 .85.85 0 01-1.7 0M33.312 41.443a.85.85 0 111.699-.001.85.85 0 01-1.699.001M20.003 41.443a.85.85 0 111.698-.002.85.85 0 01-1.698.002M6.694 41.443a.85.85 0 111.698-.002.85.85 0 01-1.698.002M59.93 29.549a.85.85 0 111.7.001.85.85 0 01-1.7-.001M46.621 29.549a.85.85 0 111.7.001.85.85 0 01-1.7-.001M33.312 29.549a.85.85 0 111.698 0 .85.85 0 01-1.698 0M20.003 29.549a.849.849 0 111.698 0 .849.849 0 01-1.698 0M6.694 29.549a.849.849 0 111.698 0 .849.849 0 01-1.698 0M59.93 17.656a.85.85 0 111.7.001.85.85 0 01-1.7-.001M46.621 17.656a.85.85 0 111.7.001.85.85 0 01-1.7-.001M33.312 17.656a.85.85 0 111.698 0 .85.85 0 01-1.698 0M20.003 17.656a.849.849 0 111.698 0 .849.849 0 01-1.698 0M6.694 17.656a.849.849 0 111.698 0 .849.849 0 01-1.698 0" fill="#2C343C"/></g></svg>