<svg width="163" height="50" viewBox="0 0 163 50" xmlns="http://www.w3.org/2000/svg"><g fill="none" fill-rule="evenodd"><path fill="#EF3054" d="M26 5v11.037L0 42V30.963L26 5M49.11 3.21v13.651L17 48.971v-13.65L49.11 3.21"/><path fill="#8696A6" opacity=".5" d="M33 4v11.037L7 41V29.963L33 4M58.676.41v13.651l-32.11 32.11v-13.65L58.676.41"/><path d="M63.944 49.432c1.312 0 2.696-.184 4.152-.552 1.456-.368 2.728-.92 3.816-1.656.608-.384.984-.84 1.128-1.368.144-.528.104-1.008-.12-1.44-.224-.432-.584-.704-1.08-.816-.496-.112-1.08.024-1.752.408-.992.64-2.016 1.08-3.072 1.32a13.65 13.65 0 01-3.024.36c-4.8 0-7.376-2.432-7.728-7.296h15.264c1.28 0 1.92-.544 1.92-1.632 0-3.616-.928-6.456-2.784-8.52-1.856-2.064-4.4-3.096-7.632-3.096-2.24 0-4.224.512-5.952 1.536-1.728 1.024-3.08 2.456-4.056 4.296-.976 1.84-1.464 3.96-1.464 6.36 0 3.744 1.104 6.696 3.312 8.856 2.208 2.16 5.232 3.24 9.072 3.24zm5.424-14.016H56.264c.256-2.08.976-3.744 2.16-4.992 1.184-1.248 2.784-1.872 4.8-1.872 1.888 0 3.36.6 4.416 1.8 1.056 1.2 1.632 2.888 1.728 5.064zm16.096 13.92c1.376 0 2.368-.72 2.976-2.16l8.112-18.672c.352-.832.368-1.584.048-2.256-.32-.672-.912-1.008-1.776-1.008-.672 0-1.192.144-1.56.432-.368.288-.696.784-.984 1.488l-6.72 16.224-6.576-16.224c-.288-.704-.616-1.2-.984-1.488-.368-.288-.84-.432-1.416-.432-1.088 0-1.808.336-2.16 1.008-.352.672-.336 1.44.048 2.304l8.016 18.624c.64 1.44 1.632 2.16 2.976 2.16zm24.448.096c1.312 0 2.696-.184 4.152-.552 1.456-.368 2.728-.92 3.816-1.656.608-.384.984-.84 1.128-1.368.144-.528.104-1.008-.12-1.44-.224-.432-.584-.704-1.08-.816-.496-.112-1.08.024-1.752.408-.992.64-2.016 1.08-3.072 1.32a13.65 13.65 0 01-3.024.36c-4.8 0-7.376-2.432-7.728-7.296h15.264c1.28 0 1.92-.544 1.92-1.632 0-3.616-.928-6.456-2.784-8.52-1.856-2.064-4.4-3.096-7.632-3.096-2.24 0-4.224.512-5.952 1.536-1.728 1.024-3.08 2.456-4.056 4.296-.976 1.84-1.464 3.96-1.464 6.36 0 3.744 1.104 6.696 3.312 8.856 2.208 2.16 5.232 3.24 9.072 3.24zm5.424-14.016h-13.104c.256-2.08.976-3.744 2.16-4.992 1.184-1.248 2.784-1.872 4.8-1.872 1.888 0 3.36.6 4.416 1.8 1.056 1.2 1.632 2.888 1.728 5.064zm25.936 13.92c1.6 0 2.4-.816 2.4-2.448V34.552c0-6.272-2.768-9.408-8.304-9.408-1.728 0-3.288.368-4.68 1.104-1.392.736-2.488 1.808-3.288 3.216v-1.776c0-1.632-.784-2.448-2.352-2.448-1.568 0-2.352.816-2.352 2.448v19.2c0 1.632.8 2.448 2.4 2.448 1.632 0 2.448-.816 2.448-2.448V35.752c0-2.016.584-3.64 1.752-4.872 1.168-1.232 2.728-1.848 4.68-1.848 1.664 0 2.888.464 3.672 1.392.784.928 1.176 2.4 1.176 4.416v12.048c0 1.632.816 2.448 2.448 2.448zm17.056.096c.512 0 1.096-.048 1.752-.144.656-.096 1.176-.224 1.56-.384.448-.128.76-.392.936-.792.176-.4.264-.856.264-1.368 0-.672-.112-1.128-.336-1.368a1.129 1.129 0 00-.864-.36c-.32.032-.688.104-1.104.216-.416.112-.912.168-1.488.168-1.632 0-2.808-.432-3.528-1.296-.72-.864-1.08-2.144-1.08-3.84V29.32h5.616c1.344 0 2.016-.624 2.016-1.872 0-1.248-.672-1.872-2.016-1.872h-5.616v-4.944c0-1.632-.8-2.448-2.4-2.448-1.632 0-2.448.816-2.448 2.448v4.944h-2.88c-1.344 0-2.016.624-2.016 1.872 0 1.248.672 1.872 2.016 1.872h2.88v11.328c0 2.848.72 5.024 2.16 6.528 1.44 1.504 3.632 2.256 6.576 2.256z" fill="#2C343C" fill-rule="nonzero"/></g></svg>